<?xml version="1.0" encoding="utf-8" standalone="no"?>
<!DOCTYPE svg PUBLIC "-//W3C//DTD SVG 1.1//EN"
  "http://www.w3.org/Graphics/SVG/1.1/DTD/svg11.dtd">
<svg height="300.53175pt" version="1.1" viewBox="0 0 605.9725 300.53175" width="605.9725pt" xmlns="http://www.w3.org/2000/svg" xmlns:xlink="http://www.w3.org/1999/xlink">
 <metadata>
  <rdf:RDF xmlns:cc="http://creativecommons.org/ns#" xmlns:dc="http://purl.org/dc/elements/1.1/" xmlns:rdf="http://www.w3.org/1999/02/22-rdf-syntax-ns#">
   <cc:Work>
    <dc:type rdf:resource="http://purl.org/dc/dcmitype/StillImage"/>
    <dc:date>2022-11-02T12:22:28.696091</dc:date>
    <dc:format>image/svg+xml</dc:format>
    <dc:creator>
     <cc:Agent>
      <dc:title>Matplotlib v3.4.1, https://matplotlib.org/</dc:title>
     </cc:Agent>
    </dc:creator>
   </cc:Work>
  </rdf:RDF>
 </metadata>
 <defs>
  <style type="text/css">*{stroke-linecap:butt;stroke-linejoin:round;}</style>
 </defs>
 <g id="figure_1">
  <g id="patch_1">
   <path d="M 0 300.53175 
L 605.9725 300.53175 
L 605.9725 0 
L 0 0 
z
" style="fill:#ffffff;"/>
  </g>
  <g id="axes_1">
   <g id="patch_2">
    <path d="M 53.7625 259.488 
L 590.5225 259.488 
L 590.5225 7.2 
L 53.7625 7.2 
z
" style="fill:#eaeaf2;"/>
   </g>
   <g id="matplotlib.axis_1">
    <g id="xtick_1">
     <g id="line2d_1">
      <path clip-path="url(#p5b8748af5e)" d="M 53.7625 259.488 
L 53.7625 7.2 
" style="fill:none;stroke:#ffffff;stroke-linecap:round;"/>
     </g>
     <g id="text_1">
      <!-- 0 -->
      <g style="fill:#262626;" transform="translate(51.0125 276.851281)scale(0.11 -0.11)">
       <defs>
        <path d="M 1600 4225 
Q 1250 4225 1012 3687 
Q 775 3150 775 2250 
Q 775 1300 1012 775 
Q 1250 250 1600 250 
Q 1975 250 2187 775 
Q 2400 1300 2400 2250 
Q 2400 3150 2200 3687 
Q 2000 4225 1600 4225 
z
M 1600 50 
Q 1050 50 675 625 
Q 300 1200 300 2250 
Q 300 3225 662 3825 
Q 1025 4425 1600 4425 
Q 2150 4425 2512 3850 
Q 2875 3275 2875 2250 
Q 2875 1225 2512 637 
Q 2150 50 1600 50 
z
" id="SimSun-30" transform="scale(0.015625)"/>
       </defs>
       <use xlink:href="#SimSun-30"/>
      </g>
     </g>
    </g>
    <g id="xtick_2">
     <g id="line2d_2">
      <path clip-path="url(#p5b8748af5e)" d="M 161.1145 259.488 
L 161.1145 7.2 
" style="fill:none;stroke:#ffffff;stroke-linecap:round;"/>
     </g>
     <g id="text_2">
      <!-- 100 -->
      <g style="fill:#262626;" transform="translate(152.8645 276.851281)scale(0.11 -0.11)">
       <defs>
        <path d="M 1825 4450 
L 1825 650 
Q 1825 450 1950 350 
Q 2075 250 2300 250 
L 2550 250 
L 2550 100 
L 725 100 
L 725 250 
L 950 250 
Q 1200 250 1312 350 
Q 1425 450 1425 650 
L 1425 3675 
Q 1425 3775 1362 3837 
Q 1300 3900 1175 3900 
L 725 3900 
L 725 4050 
L 950 4050 
Q 1250 4050 1437 4150 
Q 1625 4250 1725 4450 
L 1825 4450 
z
" id="SimSun-31" transform="scale(0.015625)"/>
       </defs>
       <use xlink:href="#SimSun-31"/>
       <use x="50" xlink:href="#SimSun-30"/>
       <use x="100" xlink:href="#SimSun-30"/>
      </g>
     </g>
    </g>
    <g id="xtick_3">
     <g id="line2d_3">
      <path clip-path="url(#p5b8748af5e)" d="M 268.4665 259.488 
L 268.4665 7.2 
" style="fill:none;stroke:#ffffff;stroke-linecap:round;"/>
     </g>
     <g id="text_3">
      <!-- 200 -->
      <g style="fill:#262626;" transform="translate(260.2165 276.851281)scale(0.11 -0.11)">
       <defs>
        <path d="M 2325 3325 
Q 2325 3775 2125 4012 
Q 1925 4250 1525 4250 
Q 1225 4250 1012 4087 
Q 800 3925 800 3675 
Q 800 3525 900 3425 
Q 975 3325 975 3225 
Q 975 3100 912 3037 
Q 850 2975 725 2975 
Q 575 2975 487 3062 
Q 400 3150 400 3350 
Q 400 3875 775 4150 
Q 1150 4425 1575 4425 
Q 2175 4425 2462 4125 
Q 2750 3825 2750 3375 
Q 2750 3075 2612 2775 
Q 2475 2475 2175 2200 
Q 1450 1500 1062 1062 
Q 675 625 600 475 
L 2075 475 
Q 2300 475 2450 650 
Q 2600 825 2650 1175 
L 2800 1175 
L 2650 100 
L 325 100 
L 325 425 
Q 450 650 737 1000 
Q 1025 1350 1500 1825 
Q 1925 2250 2125 2625 
Q 2325 3000 2325 3325 
z
" id="SimSun-32" transform="scale(0.015625)"/>
       </defs>
       <use xlink:href="#SimSun-32"/>
       <use x="50" xlink:href="#SimSun-30"/>
       <use x="100" xlink:href="#SimSun-30"/>
      </g>
     </g>
    </g>
    <g id="xtick_4">
     <g id="line2d_4">
      <path clip-path="url(#p5b8748af5e)" d="M 375.8185 259.488 
L 375.8185 7.2 
" style="fill:none;stroke:#ffffff;stroke-linecap:round;"/>
     </g>
     <g id="text_4">
      <!-- 300 -->
      <g style="fill:#262626;" transform="translate(367.5685 276.851281)scale(0.11 -0.11)">
       <defs>
        <path d="M 2800 1250 
Q 2800 775 2450 412 
Q 2100 50 1475 50 
Q 1025 50 700 300 
Q 375 550 375 875 
Q 375 1025 475 1137 
Q 575 1250 675 1250 
Q 825 1250 887 1137 
Q 950 1025 950 950 
Q 950 825 900 750 
Q 850 650 850 575 
Q 850 425 1037 325 
Q 1225 225 1450 225 
Q 1900 225 2125 487 
Q 2350 750 2350 1300 
Q 2350 1750 2112 2025 
Q 1875 2300 1225 2300 
L 1225 2475 
Q 1725 2475 1962 2712 
Q 2200 2950 2200 3375 
Q 2200 3725 2012 3987 
Q 1825 4250 1425 4250 
Q 1250 4250 1050 4162 
Q 850 4075 850 3875 
Q 850 3675 900 3625 
Q 950 3575 950 3500 
Q 950 3375 900 3300 
Q 850 3225 725 3225 
Q 625 3225 537 3300 
Q 450 3375 450 3575 
Q 450 3950 775 4187 
Q 1100 4425 1525 4425 
Q 2025 4425 2325 4112 
Q 2625 3800 2625 3450 
Q 2625 3075 2437 2812 
Q 2250 2550 1850 2425 
Q 2400 2225 2600 1900 
Q 2800 1575 2800 1250 
z
" id="SimSun-33" transform="scale(0.015625)"/>
       </defs>
       <use xlink:href="#SimSun-33"/>
       <use x="50" xlink:href="#SimSun-30"/>
       <use x="100" xlink:href="#SimSun-30"/>
      </g>
     </g>
    </g>
    <g id="xtick_5">
     <g id="line2d_5">
      <path clip-path="url(#p5b8748af5e)" d="M 483.1705 259.488 
L 483.1705 7.2 
" style="fill:none;stroke:#ffffff;stroke-linecap:round;"/>
     </g>
     <g id="text_5">
      <!-- 400 -->
      <g style="fill:#262626;" transform="translate(474.9205 276.851281)scale(0.11 -0.11)">
       <defs>
        <path d="M 2300 575 
Q 2300 400 2400 325 
Q 2500 250 2675 250 
L 2900 250 
L 2900 100 
L 1250 100 
L 1250 250 
L 1525 250 
Q 1725 250 1812 325 
Q 1900 400 1900 575 
L 1900 1400 
L 225 1400 
L 225 1525 
L 2050 4425 
L 2300 4425 
L 2300 1550 
L 2975 1550 
L 2975 1400 
L 2300 1400 
L 2300 575 
z
M 1875 3800 
L 450 1550 
L 1900 1550 
L 1900 3800 
L 1875 3800 
z
" id="SimSun-34" transform="scale(0.015625)"/>
       </defs>
       <use xlink:href="#SimSun-34"/>
       <use x="50" xlink:href="#SimSun-30"/>
       <use x="100" xlink:href="#SimSun-30"/>
      </g>
     </g>
    </g>
    <g id="xtick_6">
     <g id="line2d_6">
      <path clip-path="url(#p5b8748af5e)" d="M 590.5225 259.488 
L 590.5225 7.2 
" style="fill:none;stroke:#ffffff;stroke-linecap:round;"/>
     </g>
     <g id="text_6">
      <!-- 500 -->
      <g style="fill:#262626;" transform="translate(582.2725 276.851281)scale(0.11 -0.11)">
       <defs>
        <path d="M 1725 2850 
Q 2200 2850 2500 2487 
Q 2800 2125 2800 1525 
Q 2800 850 2487 450 
Q 2175 50 1525 50 
Q 1075 50 725 312 
Q 375 575 375 950 
Q 375 1100 462 1212 
Q 550 1325 700 1325 
Q 850 1325 900 1225 
Q 950 1125 950 1050 
Q 950 900 875 825 
Q 800 725 800 625 
Q 800 425 1037 325 
Q 1275 225 1550 225 
Q 1950 225 2162 550 
Q 2375 875 2375 1475 
Q 2375 1975 2187 2287 
Q 2000 2600 1625 2600 
Q 1350 2600 1150 2500 
Q 950 2400 775 2075 
L 550 2100 
L 675 4375 
L 2725 4375 
L 2650 4000 
L 850 4000 
L 750 2350 
Q 1000 2700 1237 2775 
Q 1475 2850 1725 2850 
z
" id="SimSun-35" transform="scale(0.015625)"/>
       </defs>
       <use xlink:href="#SimSun-35"/>
       <use x="50" xlink:href="#SimSun-30"/>
       <use x="100" xlink:href="#SimSun-30"/>
      </g>
     </g>
    </g>
    <g id="text_7">
     <!-- 迭代次数 -->
     <g style="fill:#262626;" transform="translate(298.1425 291.784875)scale(0.12 -0.12)">
      <defs>
       <path d="M 4075 2425 
L 3975 2025 
Q 5050 1525 5350 1275 
Q 5650 1025 5650 800 
Q 5650 700 5600 587 
Q 5550 475 5500 475 
Q 5425 475 5300 700 
Q 5075 1050 4700 1362 
Q 4325 1675 3950 1950 
Q 3500 900 2175 425 
L 2125 500 
Q 3525 1250 3725 2425 
L 2675 2425 
Q 2450 2425 2175 2350 
L 1950 2575 
L 3750 2575 
Q 3825 3150 3825 3750 
L 2900 3750 
Q 2600 3150 2150 2725 
L 2100 2775 
Q 2400 3275 2562 3737 
Q 2725 4200 2800 4725 
L 3275 4475 
Q 3125 4350 2950 3900 
L 3825 3900 
Q 3825 4400 3800 5150 
L 4375 4900 
L 4175 4725 
L 4175 3900 
L 4900 3900 
L 5200 4200 
L 5625 3750 
L 4175 3750 
Q 4150 3025 4100 2575 
L 5300 2575 
L 5600 2875 
L 6025 2425 
L 4075 2425 
z
M 1575 875 
Q 1800 625 2225 350 
Q 2650 75 3725 37 
Q 4800 0 6125 175 
L 6125 75 
Q 5675 -75 5650 -325 
Q 4475 -350 3725 -312 
Q 2975 -275 2562 -100 
Q 2150 75 1850 400 
Q 1525 725 1437 750 
Q 1350 775 1050 475 
Q 750 175 575 -125 
L 250 225 
Q 725 550 1250 875 
L 1250 2925 
L 925 2925 
Q 725 2925 450 2850 
L 225 3075 
L 1125 3075 
L 1425 3375 
L 1850 2975 
L 1575 2825 
L 1575 875 
z
M 950 5025 
L 975 5100 
Q 1350 4900 1575 4725 
Q 1800 4550 1800 4362 
Q 1800 4175 1712 4100 
Q 1625 4025 1600 4025 
Q 1500 4025 1400 4300 
Q 1275 4675 950 5025 
z
" id="SimSun-8fed" transform="scale(0.015625)"/>
       <path d="M 5550 -75 
L 5875 1025 
L 5975 1025 
Q 5875 175 5912 -75 
Q 5950 -325 6025 -525 
Q 6075 -650 5950 -650 
Q 5900 -650 5662 -587 
Q 5425 -525 4925 -150 
Q 4425 225 4100 850 
Q 3775 1475 3600 2975 
L 2575 2925 
L 2350 2850 
L 2100 3050 
L 3575 3125 
Q 3525 3750 3500 4175 
Q 3475 4600 3450 5075 
L 4050 4775 
L 3850 4600 
Q 3875 3625 3925 3150 
L 5150 3225 
L 5475 3550 
L 5975 3125 
L 3950 3000 
Q 4100 1525 4550 862 
Q 5000 200 5550 -75 
z
M 4475 4700 
L 4500 4800 
Q 5450 4475 5537 4300 
Q 5625 4125 5625 4050 
Q 5625 3950 5550 3837 
Q 5475 3725 5425 3725 
Q 5325 3725 5225 3950 
Q 5025 4275 4475 4700 
z
M 1800 3100 
L 1800 400 
Q 1800 0 1825 -475 
L 1425 -650 
Q 1450 -25 1450 375 
L 1450 3125 
Q 850 2175 300 1675 
L 225 1750 
Q 550 2175 837 2662 
Q 1125 3150 1412 3787 
Q 1700 4425 1925 5250 
L 2475 4900 
Q 2275 4800 2050 4350 
Q 1825 3875 1625 3500 
L 1975 3275 
L 1800 3100 
z
" id="SimSun-4ee3" transform="scale(0.015625)"/>
       <path d="M 4875 2725 
L 5275 3600 
L 3225 3600 
Q 3025 3250 2800 2887 
Q 2575 2525 2075 2025 
L 2000 2100 
Q 2575 2825 2925 3750 
Q 3275 4675 3350 5225 
L 3950 4925 
Q 3750 4825 3650 4600 
Q 3550 4375 3275 3750 
L 5250 3750 
L 5525 4025 
L 5975 3550 
Q 5725 3500 5550 3350 
Q 5375 3200 4950 2675 
L 4875 2725 
z
M 4050 2900 
Q 3900 1225 3175 437 
Q 2450 -350 1450 -650 
L 1400 -575 
Q 2675 0 3175 912 
Q 3675 1825 3700 3400 
L 4275 3100 
L 4125 2975 
Q 4300 1700 4812 912 
Q 5325 125 6150 -175 
L 6125 -250 
Q 5750 -225 5575 -500 
Q 4950 -25 4537 825 
Q 4125 1675 4050 2900 
z
M 750 4950 
Q 1275 4675 1487 4450 
Q 1700 4225 1700 4075 
Q 1700 3925 1587 3775 
Q 1475 3625 1450 3625 
Q 1350 3625 1275 3950 
Q 1150 4400 700 4875 
L 750 4950 
z
M 425 1650 
Q 600 1625 750 1625 
Q 975 1625 1100 1725 
Q 1225 1825 2275 4300 
L 2375 4250 
Q 1400 1700 1350 1600 
Q 1300 1500 1300 1187 
Q 1300 875 1375 350 
Q 1450 -200 1212 -175 
Q 975 -150 925 -25 
Q 875 100 875 200 
Q 875 300 925 575 
Q 1000 975 975 1187 
Q 950 1400 425 1550 
L 425 1650 
z
" id="SimSun-6b21" transform="scale(0.015625)"/>
       <path d="M 1875 1525 
Q 1675 1200 1500 900 
Q 1825 825 2275 725 
Q 2500 975 2725 1525 
L 1875 1525 
z
M 850 4900 
Q 1325 4600 1425 4450 
Q 1525 4300 1525 4225 
Q 1525 4100 1437 3975 
Q 1350 3850 1300 3850 
Q 1225 3850 1150 4100 
Q 1050 4450 775 4850 
L 850 4900 
z
M 3000 4975 
L 3450 4675 
Q 3250 4625 3100 4425 
Q 2925 4225 2525 3825 
L 2450 3875 
Q 2925 4625 3000 4975 
z
M 1875 5250 
L 2425 5000 
L 2225 4825 
L 2225 3675 
L 2850 3675 
L 3125 3950 
L 3550 3525 
L 2225 3525 
L 2225 3300 
Q 2800 3175 2937 3062 
Q 3075 2950 3075 2775 
Q 3075 2700 3050 2587 
Q 3025 2475 2975 2475 
Q 2925 2475 2800 2650 
Q 2600 2925 2225 3175 
L 2225 2400 
L 1925 2200 
L 2275 2050 
Q 2150 2000 1950 1675 
L 2725 1675 
L 2900 1900 
L 3275 1575 
L 3050 1450 
Q 2800 875 2600 650 
Q 3000 550 3137 437 
Q 3275 325 3275 150 
Q 3275 -25 3200 -25 
Q 3125 -25 3025 75 
Q 2750 275 2400 425 
Q 1525 -275 325 -500 
L 300 -425 
Q 1450 -50 2100 550 
Q 1600 725 1125 800 
Q 1225 950 1525 1525 
L 1200 1525 
Q 875 1525 600 1450 
L 375 1675 
L 1575 1675 
Q 1675 1925 1775 2275 
L 1900 2225 
L 1900 3250 
Q 1225 2475 350 2050 
L 300 2125 
Q 1225 2775 1700 3525 
L 1250 3525 
Q 925 3525 650 3450 
L 425 3675 
L 1900 3675 
Q 1900 4575 1875 5250 
z
M 3925 3525 
Q 4050 2075 4525 1100 
Q 4925 1950 5025 3525 
L 3925 3525 
z
M 4050 5250 
L 4625 4925 
Q 4425 4850 4325 4625 
Q 4225 4400 3950 3675 
L 5375 3675 
L 5675 3975 
L 6125 3525 
L 5400 3525 
Q 5250 1675 4750 775 
Q 5325 75 6100 -100 
L 6100 -200 
Q 5625 -275 5600 -500 
Q 4950 -50 4525 525 
Q 3700 -275 2550 -650 
L 2500 -575 
Q 3650 -50 4325 800 
Q 3850 1975 3825 3375 
Q 3575 2725 3100 2150 
L 3025 2200 
Q 3625 3200 4050 5250 
z
" id="SimSun-6570" transform="scale(0.015625)"/>
      </defs>
      <use xlink:href="#SimSun-8fed"/>
      <use x="100" xlink:href="#SimSun-4ee3"/>
      <use x="200" xlink:href="#SimSun-6b21"/>
      <use x="300" xlink:href="#SimSun-6570"/>
     </g>
    </g>
   </g>
   <g id="matplotlib.axis_2">
    <g id="ytick_1">
     <g id="line2d_7">
      <path clip-path="url(#p5b8748af5e)" d="M 53.7625 235.145895 
L 590.5225 235.145895 
" style="fill:none;stroke:#ffffff;stroke-linecap:round;"/>
     </g>
     <g id="text_8">
      <!-- 4500 -->
      <g style="fill:#262626;" transform="translate(22.2625 239.077536)scale(0.11 -0.11)">
       <use xlink:href="#SimSun-34"/>
       <use x="50" xlink:href="#SimSun-35"/>
       <use x="100" xlink:href="#SimSun-30"/>
       <use x="150" xlink:href="#SimSun-30"/>
      </g>
     </g>
    </g>
    <g id="ytick_2">
     <g id="line2d_8">
      <path clip-path="url(#p5b8748af5e)" d="M 53.7625 198.298532 
L 590.5225 198.298532 
" style="fill:none;stroke:#ffffff;stroke-linecap:round;"/>
     </g>
     <g id="text_9">
      <!-- 5000 -->
      <g style="fill:#262626;" transform="translate(22.2625 202.230172)scale(0.11 -0.11)">
       <use xlink:href="#SimSun-35"/>
       <use x="50" xlink:href="#SimSun-30"/>
       <use x="100" xlink:href="#SimSun-30"/>
       <use x="150" xlink:href="#SimSun-30"/>
      </g>
     </g>
    </g>
    <g id="ytick_3">
     <g id="line2d_9">
      <path clip-path="url(#p5b8748af5e)" d="M 53.7625 161.451169 
L 590.5225 161.451169 
" style="fill:none;stroke:#ffffff;stroke-linecap:round;"/>
     </g>
     <g id="text_10">
      <!-- 5500 -->
      <g style="fill:#262626;" transform="translate(22.2625 165.382809)scale(0.11 -0.11)">
       <use xlink:href="#SimSun-35"/>
       <use x="50" xlink:href="#SimSun-35"/>
       <use x="100" xlink:href="#SimSun-30"/>
       <use x="150" xlink:href="#SimSun-30"/>
      </g>
     </g>
    </g>
    <g id="ytick_4">
     <g id="line2d_10">
      <path clip-path="url(#p5b8748af5e)" d="M 53.7625 124.603805 
L 590.5225 124.603805 
" style="fill:none;stroke:#ffffff;stroke-linecap:round;"/>
     </g>
     <g id="text_11">
      <!-- 6000 -->
      <g style="fill:#262626;" transform="translate(22.2625 128.535446)scale(0.11 -0.11)">
       <defs>
        <path d="M 775 1800 
Q 775 1050 1037 637 
Q 1300 225 1675 225 
Q 2050 225 2250 500 
Q 2450 775 2450 1525 
Q 2450 2025 2237 2300 
Q 2025 2575 1725 2575 
Q 1450 2575 1212 2412 
Q 975 2250 775 1800 
z
M 1750 2825 
Q 2350 2825 2612 2425 
Q 2875 2025 2875 1525 
Q 2875 775 2512 412 
Q 2150 50 1675 50 
Q 1000 50 650 562 
Q 300 1075 300 2050 
Q 300 3200 725 3812 
Q 1150 4425 1875 4425 
Q 2225 4425 2437 4225 
Q 2650 4025 2650 3875 
Q 2650 3725 2587 3650 
Q 2525 3575 2375 3575 
Q 2250 3575 2187 3637 
Q 2125 3700 2125 3825 
Q 2125 3875 2150 3925 
Q 2150 3975 2150 4025 
Q 2150 4125 2075 4187 
Q 2000 4250 1800 4250 
Q 1375 4250 1075 3862 
Q 775 3475 775 2175 
Q 925 2500 1187 2662 
Q 1450 2825 1750 2825 
z
" id="SimSun-36" transform="scale(0.015625)"/>
       </defs>
       <use xlink:href="#SimSun-36"/>
       <use x="50" xlink:href="#SimSun-30"/>
       <use x="100" xlink:href="#SimSun-30"/>
       <use x="150" xlink:href="#SimSun-30"/>
      </g>
     </g>
    </g>
    <g id="ytick_5">
     <g id="line2d_11">
      <path clip-path="url(#p5b8748af5e)" d="M 53.7625 87.756442 
L 590.5225 87.756442 
" style="fill:none;stroke:#ffffff;stroke-linecap:round;"/>
     </g>
     <g id="text_12">
      <!-- 6500 -->
      <g style="fill:#262626;" transform="translate(22.2625 91.688083)scale(0.11 -0.11)">
       <use xlink:href="#SimSun-36"/>
       <use x="50" xlink:href="#SimSun-35"/>
       <use x="100" xlink:href="#SimSun-30"/>
       <use x="150" xlink:href="#SimSun-30"/>
      </g>
     </g>
    </g>
    <g id="ytick_6">
     <g id="line2d_12">
      <path clip-path="url(#p5b8748af5e)" d="M 53.7625 50.909079 
L 590.5225 50.909079 
" style="fill:none;stroke:#ffffff;stroke-linecap:round;"/>
     </g>
     <g id="text_13">
      <!-- 7000 -->
      <g style="fill:#262626;" transform="translate(22.2625 54.84072)scale(0.11 -0.11)">
       <defs>
        <path d="M 2825 4200 
Q 2300 3350 1987 2537 
Q 1675 1725 1675 1125 
Q 1675 1025 1700 850 
Q 1700 650 1700 400 
Q 1700 200 1637 125 
Q 1575 50 1425 50 
Q 1300 50 1212 137 
Q 1125 225 1125 450 
Q 1125 925 1337 1625 
Q 1550 2325 2475 4000 
L 1225 4000 
Q 950 4000 787 3825 
Q 625 3650 550 3300 
L 400 3325 
L 575 4375 
L 2825 4375 
L 2825 4200 
z
" id="SimSun-37" transform="scale(0.015625)"/>
       </defs>
       <use xlink:href="#SimSun-37"/>
       <use x="50" xlink:href="#SimSun-30"/>
       <use x="100" xlink:href="#SimSun-30"/>
       <use x="150" xlink:href="#SimSun-30"/>
      </g>
     </g>
    </g>
    <g id="ytick_7">
     <g id="line2d_13">
      <path clip-path="url(#p5b8748af5e)" d="M 53.7625 14.061716 
L 590.5225 14.061716 
" style="fill:none;stroke:#ffffff;stroke-linecap:round;"/>
     </g>
     <g id="text_14">
      <!-- 7500 -->
      <g style="fill:#262626;" transform="translate(22.2625 17.993357)scale(0.11 -0.11)">
       <use xlink:href="#SimSun-37"/>
       <use x="50" xlink:href="#SimSun-35"/>
       <use x="100" xlink:href="#SimSun-30"/>
       <use x="150" xlink:href="#SimSun-30"/>
      </g>
     </g>
    </g>
    <g id="text_15">
     <!-- 适应度曲线 -->
     <g style="fill:#262626;" transform="translate(16.715625 163.344)rotate(-90)scale(0.12 -0.12)">
      <defs>
       <path d="M 2900 2175 
L 2900 925 
L 4925 925 
L 4925 2175 
L 2900 2175 
z
M 3725 4500 
Q 2925 4450 2250 4425 
L 2250 4525 
Q 3400 4625 4125 4787 
Q 4850 4950 5175 5175 
L 5500 4675 
Q 5225 4675 4875 4637 
Q 4525 4600 4075 4550 
L 4075 3425 
L 5300 3425 
L 5650 3775 
L 6075 3275 
L 4075 3275 
L 4075 2325 
L 4875 2325 
L 5025 2575 
L 5450 2275 
L 5250 2100 
Q 5250 1025 5275 525 
L 4925 375 
L 4925 775 
L 2900 775 
L 2900 475 
L 2550 350 
Q 2575 875 2575 1500 
Q 2575 2125 2550 2525 
L 2925 2325 
L 3725 2325 
L 3725 3275 
L 2700 3275 
Q 2350 3275 2075 3200 
L 1850 3425 
L 3725 3425 
L 3725 4500 
z
M 1600 775 
Q 1825 550 2225 287 
Q 2625 25 3725 0 
Q 4825 -25 6150 125 
L 6150 25 
Q 5650 -75 5650 -400 
Q 4600 -400 3825 -375 
Q 3050 -350 2600 -187 
Q 2150 -25 1850 300 
Q 1550 600 1425 600 
Q 1300 600 1025 312 
Q 750 25 650 -200 
L 275 125 
Q 675 450 1275 800 
L 1275 2675 
L 950 2675 
Q 750 2675 475 2600 
L 250 2825 
L 1225 2825 
L 1375 3075 
L 1800 2775 
L 1600 2600 
L 1600 775 
z
M 725 4750 
L 775 4825 
Q 1200 4600 1400 4412 
Q 1600 4225 1600 4050 
Q 1600 3875 1500 3762 
Q 1400 3650 1350 3650 
Q 1250 3650 1175 3925 
Q 1050 4325 725 4750 
z
" id="SimSun-9002" transform="scale(0.015625)"/>
       <path d="M 1850 3225 
Q 2650 2125 2750 1850 
Q 2850 1575 2850 1400 
Q 2850 1275 2812 1137 
Q 2775 1000 2637 925 
Q 2500 850 2400 1475 
Q 2275 2075 1775 3175 
L 1850 3225 
z
M 3100 3425 
Q 3650 2675 3862 2287 
Q 4075 1900 4037 1637 
Q 4000 1375 3900 1300 
Q 3800 1225 3775 1225 
Q 3625 1225 3575 1725 
Q 3475 2350 3000 3375 
L 3100 3425 
z
M 1175 75 
L 4075 75 
Q 4600 1400 4800 2087 
Q 5000 2775 5125 3450 
L 5700 3100 
Q 5525 3025 5150 2100 
Q 4750 1175 4250 75 
L 5125 75 
L 5550 500 
L 6125 -75 
L 2000 -75 
Q 1675 -75 1400 -150 
L 1175 75 
z
M 975 4475 
L 1350 4225 
L 5075 4225 
L 5475 4625 
L 6025 4075 
L 1350 4075 
Q 1350 3200 1337 2387 
Q 1325 1575 1100 850 
Q 875 125 325 -575 
L 250 -525 
Q 750 375 875 1225 
Q 1000 2075 1000 2850 
Q 1000 3625 975 4475 
z
M 3175 5225 
Q 3725 4925 3787 4812 
Q 3850 4700 3850 4625 
Q 3850 4525 3787 4412 
Q 3725 4300 3612 4250 
Q 3500 4200 3450 4450 
Q 3400 4700 3100 5175 
L 3175 5225 
z
" id="SimSun-5e94" transform="scale(0.015625)"/>
       <path d="M 2550 2025 
Q 2575 2525 2575 3175 
L 1925 3175 
L 1625 3125 
L 1425 3325 
L 2575 3325 
Q 2575 3700 2550 4150 
L 3100 3875 
L 2900 3750 
L 2900 3325 
L 4300 3325 
Q 4300 3750 4275 4125 
L 4850 3875 
L 4625 3725 
L 4625 3325 
L 5100 3325 
L 5425 3650 
L 5900 3175 
L 4625 3175 
Q 4625 2450 4650 2225 
L 4300 2075 
L 4300 2300 
L 2900 2300 
L 2900 2175 
L 2550 2025 
z
M 4875 1500 
Q 4300 775 3900 425 
Q 4700 -75 6025 -125 
L 6025 -225 
Q 5625 -300 5550 -550 
Q 4375 -325 3675 225 
Q 2475 -450 1075 -625 
L 1050 -525 
Q 2375 -275 3450 450 
Q 2975 925 2575 1625 
L 2325 1625 
L 2100 1575 
L 1900 1775 
L 4525 1775 
L 4750 2000 
L 5125 1625 
L 4875 1500 
z
M 2700 1625 
Q 3175 975 3650 625 
Q 4150 1100 4500 1625 
L 2700 1625 
z
M 2900 3175 
L 2900 2450 
L 4300 2450 
L 4300 3175 
L 2900 3175 
z
M 975 4650 
L 1400 4400 
L 3375 4400 
Q 3350 4550 3262 4725 
Q 3175 4900 2900 5225 
L 2975 5275 
Q 3550 5025 3637 4887 
Q 3725 4750 3725 4725 
Q 3725 4575 3525 4400 
L 5150 4400 
L 5500 4750 
L 6000 4250 
L 1375 4250 
Q 1400 2750 1287 1912 
Q 1175 1075 925 475 
Q 675 -125 300 -625 
L 225 -575 
Q 725 300 862 1250 
Q 1000 2200 1012 3187 
Q 1025 4175 975 4650 
z
" id="SimSun-5ea6" transform="scale(0.015625)"/>
       <path d="M 4050 2000 
L 4050 200 
L 5075 200 
L 5075 2000 
L 4050 2000 
z
M 1000 4050 
L 1400 3825 
L 2375 3825 
Q 2375 4750 2350 5250 
L 2925 4975 
L 2700 4800 
L 2700 3825 
L 3725 3825 
Q 3725 4850 3700 5250 
L 4300 4950 
L 4050 4800 
L 4050 3825 
L 5025 3825 
L 5250 4075 
L 5650 3750 
L 5425 3575 
Q 5425 325 5450 -250 
L 5075 -425 
L 5075 50 
L 1375 50 
L 1375 -350 
L 1000 -525 
Q 1025 650 1025 1812 
Q 1025 2975 1000 4050 
z
M 1375 3675 
L 1375 2150 
L 2375 2150 
L 2375 3675 
L 1375 3675 
z
M 2700 3675 
L 2700 2150 
L 3725 2150 
L 3725 3675 
L 2700 3675 
z
M 4050 3675 
L 4050 2150 
L 5075 2150 
L 5075 3675 
L 4050 3675 
z
M 1375 2000 
L 1375 200 
L 2375 200 
L 2375 2000 
L 1375 2000 
z
M 2700 2000 
L 2700 200 
L 3725 200 
L 3725 2000 
L 2700 2000 
z
" id="SimSun-66f2" transform="scale(0.015625)"/>
       <path d="M 3900 3400 
Q 3900 3050 3950 2475 
L 5125 2600 
L 5450 2975 
L 5950 2550 
L 3975 2350 
Q 4050 1575 4225 1125 
Q 4775 1625 5100 2175 
L 5550 1725 
L 5325 1700 
Q 4850 1250 4375 800 
Q 4825 175 5425 -75 
L 5775 1125 
L 5875 1100 
Q 5825 525 5812 150 
Q 5800 -225 5925 -450 
Q 5950 -500 5950 -525 
Q 5950 -625 5687 -587 
Q 5425 -550 4987 -287 
Q 4550 -25 4100 550 
Q 3650 250 3187 50 
Q 2725 -150 2025 -350 
L 2000 -250 
Q 3075 150 3925 850 
Q 3700 1525 3625 2300 
L 2600 2175 
L 2400 2075 
L 2125 2275 
L 3600 2425 
Q 3575 2775 3550 3375 
L 2825 3325 
L 2675 3225 
L 2450 3425 
L 3550 3500 
Q 3525 4375 3500 5250 
L 4075 4975 
L 3875 4800 
Q 3875 4275 3900 3525 
L 4975 3625 
L 5300 4000 
L 5800 3550 
L 3900 3400 
z
M 4275 4825 
L 4300 4900 
Q 5075 4700 5150 4562 
Q 5225 4425 5225 4325 
Q 5225 4200 5175 4075 
Q 5125 3950 5075 3950 
Q 5025 3950 4925 4150 
Q 4750 4425 4275 4825 
z
M 1525 5150 
L 2025 4825 
Q 1825 4750 1600 4325 
Q 1375 3875 775 3050 
L 1800 3150 
Q 2100 3650 2275 4150 
L 2725 3825 
Q 2550 3725 2125 3100 
Q 1700 2475 1025 1600 
Q 1375 1650 2575 1875 
L 2575 1775 
Q 1900 1600 1525 1462 
Q 1150 1325 775 1075 
L 475 1600 
Q 750 1675 1112 2137 
Q 1475 2600 1750 3050 
Q 1475 3000 1175 2912 
Q 875 2825 625 2600 
L 350 3075 
Q 625 3125 987 3787 
Q 1350 4450 1525 5150 
z
M 325 375 
Q 1025 475 1450 550 
Q 1875 625 2825 825 
L 2850 725 
Q 1725 400 1212 212 
Q 700 25 575 -100 
L 325 375 
z
" id="SimSun-7ebf" transform="scale(0.015625)"/>
      </defs>
      <use xlink:href="#SimSun-9002"/>
      <use x="100" xlink:href="#SimSun-5e94"/>
      <use x="200" xlink:href="#SimSun-5ea6"/>
      <use x="300" xlink:href="#SimSun-66f2"/>
      <use x="400" xlink:href="#SimSun-7ebf"/>
     </g>
    </g>
   </g>
   <g id="PolyCollection_1">
    <defs>
     <path d="M 53.7625 -281.864114 
L 53.7625 -281.864114 
L 54.83602 -189.82677 
L 55.90954 -100.833018 
L 56.98306 -100.833018 
L 58.05658 -100.833018 
L 59.1301 -100.833018 
L 60.20362 -100.833018 
L 61.27714 -100.833018 
L 62.35066 -100.833018 
L 63.42418 -100.833018 
L 64.4977 -100.833018 
L 65.57122 -100.833018 
L 66.64474 -100.833018 
L 67.71826 -100.833018 
L 68.79178 -100.833018 
L 69.8653 -100.833018 
L 70.93882 -100.833018 
L 72.01234 -100.833018 
L 73.08586 -100.833018 
L 74.15938 -100.833018 
L 75.2329 -100.833018 
L 76.30642 -100.833018 
L 77.37994 -100.833018 
L 78.45346 -100.833018 
L 79.52698 -100.833018 
L 80.6005 -100.833018 
L 81.67402 -100.833018 
L 82.74754 -100.833018 
L 83.82106 -100.833018 
L 84.89458 -100.833018 
L 85.9681 -100.833018 
L 87.04162 -100.833018 
L 88.11514 -100.833018 
L 89.18866 -100.833018 
L 90.26218 -100.833018 
L 91.3357 -100.833018 
L 92.40922 -100.833018 
L 93.48274 -100.833018 
L 94.55626 -100.833018 
L 95.62978 -100.833018 
L 96.7033 -100.833018 
L 97.77682 -100.833018 
L 98.85034 -100.833018 
L 99.92386 -100.833018 
L 100.99738 -100.833018 
L 102.0709 -100.833018 
L 103.14442 -100.833018 
L 104.21794 -100.833018 
L 105.29146 -100.833018 
L 106.36498 -100.833018 
L 107.4385 -100.833018 
L 108.51202 -99.860248 
L 109.58554 -99.860248 
L 110.65906 -99.860248 
L 111.73258 -99.860248 
L 112.8061 -99.860248 
L 113.87962 -99.860248 
L 114.95314 -99.860248 
L 116.02666 -79.174138 
L 117.10018 -79.174138 
L 118.1737 -79.174138 
L 119.24722 -79.174138 
L 120.32074 -79.174138 
L 121.39426 -79.174138 
L 122.46778 -79.174138 
L 123.5413 -79.174138 
L 124.61482 -79.174138 
L 125.68834 -79.174138 
L 126.76186 -79.174138 
L 127.83538 -79.174138 
L 128.9089 -70.662397 
L 129.98242 -70.662397 
L 131.05594 -70.662397 
L 132.12946 -70.662397 
L 133.20298 -70.662397 
L 134.2765 -70.662397 
L 135.35002 -70.662397 
L 136.42354 -70.662397 
L 137.49706 -70.662397 
L 138.57058 -70.662397 
L 139.6441 -70.662397 
L 140.71762 -70.662397 
L 141.79114 -70.662397 
L 142.86466 -70.662397 
L 143.93818 -70.662397 
L 145.0117 -70.662397 
L 146.08522 -70.662397 
L 147.15874 -70.662397 
L 148.23226 -70.662397 
L 149.30578 -70.662397 
L 150.3793 -70.662397 
L 151.45282 -70.662397 
L 152.52634 -70.662397 
L 153.59986 -70.662397 
L 154.67338 -70.662397 
L 155.7469 -70.662397 
L 156.82042 -70.662397 
L 157.89394 -70.662397 
L 158.96746 -70.662397 
L 160.04098 -70.662397 
L 161.1145 -70.662397 
L 162.18802 -70.662397 
L 163.26154 -69.977037 
L 164.33506 -69.977037 
L 165.40858 -69.977037 
L 166.4821 -69.977037 
L 167.55562 -69.977037 
L 168.62914 -69.977037 
L 169.70266 -69.977037 
L 170.77618 -69.977037 
L 171.8497 -69.977037 
L 172.92322 -69.977037 
L 173.99674 -69.977037 
L 175.07026 -69.977037 
L 176.14378 -69.977037 
L 177.2173 -69.977037 
L 178.29082 -69.977037 
L 179.36434 -69.977037 
L 180.43786 -69.977037 
L 181.51138 -69.977037 
L 182.5849 -69.977037 
L 183.65842 -69.977037 
L 184.73194 -69.977037 
L 185.80546 -69.977037 
L 186.87898 -69.977037 
L 187.9525 -69.977037 
L 189.02602 -69.977037 
L 190.09954 -69.977037 
L 191.17306 -69.977037 
L 192.24658 -69.977037 
L 193.3201 -69.977037 
L 194.39362 -69.977037 
L 195.46714 -69.977037 
L 196.54066 -69.977037 
L 197.61418 -69.977037 
L 198.6877 -69.977037 
L 199.76122 -69.977037 
L 200.83474 -69.977037 
L 201.90826 -69.977037 
L 202.98178 -69.977037 
L 204.0553 -69.977037 
L 205.12882 -69.977037 
L 206.20234 -69.977037 
L 207.27586 -69.977037 
L 208.34938 -69.977037 
L 209.4229 -69.977037 
L 210.49642 -69.977037 
L 211.56994 -69.977037 
L 212.64346 -69.977037 
L 213.71698 -69.977037 
L 214.7905 -69.977037 
L 215.86402 -69.977037 
L 216.93754 -69.977037 
L 218.01106 -69.977037 
L 219.08458 -69.977037 
L 220.1581 -69.977037 
L 221.23162 -69.977037 
L 222.30514 -69.977037 
L 223.37866 -69.977037 
L 224.45218 -69.977037 
L 225.5257 -69.977037 
L 226.59922 -69.977037 
L 227.67274 -69.977037 
L 228.74626 -69.977037 
L 229.81978 -69.977037 
L 230.8933 -69.977037 
L 231.96682 -69.977037 
L 233.04034 -69.977037 
L 234.11386 -69.977037 
L 235.18738 -69.977037 
L 236.2609 -69.977037 
L 237.33442 -69.977037 
L 238.40794 -69.977037 
L 239.48146 -69.977037 
L 240.55498 -69.977037 
L 241.6285 -69.977037 
L 242.70202 -69.977037 
L 243.77554 -69.977037 
L 244.84906 -69.977037 
L 245.92258 -69.977037 
L 246.9961 -69.977037 
L 248.06962 -69.977037 
L 249.14314 -69.977037 
L 250.21666 -69.977037 
L 251.29018 -69.977037 
L 252.3637 -69.977037 
L 253.43722 -69.977037 
L 254.51074 -69.977037 
L 255.58426 -69.977037 
L 256.65778 -69.977037 
L 257.7313 -69.977037 
L 258.80482 -69.977037 
L 259.87834 -69.977037 
L 260.95186 -69.977037 
L 262.02538 -69.977037 
L 263.0989 -69.977037 
L 264.17242 -69.977037 
L 265.24594 -69.977037 
L 266.31946 -69.977037 
L 267.39298 -69.977037 
L 268.4665 -69.977037 
L 269.54002 -69.977037 
L 270.61354 -69.977037 
L 271.68706 -69.977037 
L 272.76058 -69.977037 
L 273.8341 -69.977037 
L 274.90762 -63.609812 
L 275.98114 -63.609812 
L 277.05466 -63.609812 
L 278.12818 -63.609812 
L 279.2017 -63.609812 
L 280.27522 -63.609812 
L 281.34874 -63.609812 
L 282.42226 -63.609812 
L 283.49578 -63.609812 
L 284.5693 -63.609812 
L 285.64282 -63.609812 
L 286.71634 -63.609812 
L 287.78986 -63.609812 
L 288.86338 -63.609812 
L 289.9369 -63.609812 
L 291.01042 -63.609812 
L 292.08394 -63.609812 
L 293.15746 -63.609812 
L 294.23098 -62.091701 
L 295.3045 -62.091701 
L 296.37802 -62.091701 
L 297.45154 -62.091701 
L 298.52506 -62.091701 
L 299.59858 -62.091701 
L 300.6721 -62.091701 
L 301.74562 -54.095823 
L 302.81914 -54.095823 
L 303.89266 -54.095823 
L 304.96618 -54.095823 
L 306.0397 -54.095823 
L 307.11322 -54.095823 
L 308.18674 -54.095823 
L 309.26026 -54.095823 
L 310.33378 -54.095823 
L 311.4073 -54.095823 
L 312.48082 -54.095823 
L 313.55434 -54.095823 
L 314.62786 -54.095823 
L 315.70138 -54.095823 
L 316.7749 -54.095823 
L 317.84842 -54.095823 
L 318.92194 -54.095823 
L 319.99546 -54.095823 
L 321.06898 -54.095823 
L 322.1425 -54.095823 
L 323.21602 -54.095823 
L 324.28954 -54.095823 
L 325.36306 -54.095823 
L 326.43658 -54.095823 
L 327.5101 -54.095823 
L 328.58362 -54.095823 
L 329.65714 -54.095823 
L 330.73066 -54.095823 
L 331.80418 -54.095823 
L 332.8777 -54.095823 
L 333.95122 -54.095823 
L 335.02474 -54.095823 
L 336.09826 -54.095823 
L 337.17178 -54.095823 
L 338.2453 -54.095823 
L 339.31882 -54.095823 
L 340.39234 -54.095823 
L 341.46586 -54.095823 
L 342.53938 -54.095823 
L 343.6129 -54.095823 
L 344.68642 -54.095823 
L 345.75994 -54.095823 
L 346.83346 -54.095823 
L 347.90698 -54.095823 
L 348.9805 -54.095823 
L 350.05402 -54.095823 
L 351.12754 -54.095823 
L 352.20106 -54.095823 
L 353.27458 -54.095823 
L 354.3481 -54.095823 
L 355.42162 -54.095823 
L 356.49514 -54.095823 
L 357.56866 -54.095823 
L 358.64218 -54.095823 
L 359.7157 -54.095823 
L 360.78922 -54.095823 
L 361.86274 -54.095823 
L 362.93626 -54.095823 
L 364.00978 -54.095823 
L 365.0833 -54.095823 
L 366.15682 -54.095823 
L 367.23034 -54.095823 
L 368.30386 -54.095823 
L 369.37738 -54.095823 
L 370.4509 -54.095823 
L 371.52442 -54.095823 
L 372.59794 -54.095823 
L 373.67146 -54.095823 
L 374.74498 -54.095823 
L 375.8185 -54.095823 
L 376.89202 -54.095823 
L 377.96554 -54.095823 
L 379.03906 -54.095823 
L 380.11258 -54.095823 
L 381.1861 -54.095823 
L 382.25962 -54.095823 
L 383.33314 -54.095823 
L 384.40666 -54.095823 
L 385.48018 -54.095823 
L 386.5537 -54.095823 
L 387.62722 -54.095823 
L 388.70074 -54.095823 
L 389.77426 -54.095823 
L 390.84778 -54.095823 
L 391.9213 -54.095823 
L 392.99482 -54.095823 
L 394.06834 -54.095823 
L 395.14186 -54.095823 
L 396.21538 -54.095823 
L 397.2889 -54.095823 
L 398.36242 -54.095823 
L 399.43594 -54.095823 
L 400.50946 -54.095823 
L 401.58298 -54.095823 
L 402.6565 -54.095823 
L 403.73002 -54.095823 
L 404.80354 -54.095823 
L 405.87706 -54.095823 
L 406.95058 -54.095823 
L 408.0241 -54.095823 
L 409.09762 -54.095823 
L 410.17114 -54.095823 
L 411.24466 -54.095823 
L 412.31818 -54.095823 
L 413.3917 -54.095823 
L 414.46522 -54.095823 
L 415.53874 -54.095823 
L 416.61226 -54.095823 
L 417.68578 -54.095823 
L 418.7593 -54.095823 
L 419.83282 -54.095823 
L 420.90634 -54.095823 
L 421.97986 -54.095823 
L 423.05338 -54.095823 
L 424.1269 -54.095823 
L 425.20042 -54.095823 
L 426.27394 -54.095823 
L 427.34746 -54.095823 
L 428.42098 -54.095823 
L 429.4945 -54.095823 
L 430.56802 -54.095823 
L 431.64154 -54.095823 
L 432.71506 -54.095823 
L 433.78858 -54.095823 
L 434.8621 -54.095823 
L 435.93562 -54.095823 
L 437.00914 -54.095823 
L 438.08266 -54.095823 
L 439.15618 -54.095823 
L 440.2297 -54.095823 
L 441.30322 -54.095823 
L 442.37674 -54.095823 
L 443.45026 -54.095823 
L 444.52378 -54.095823 
L 445.5973 -54.095823 
L 446.67082 -54.095823 
L 447.74434 -54.095823 
L 448.81786 -54.095823 
L 449.89138 -54.095823 
L 450.9649 -54.095823 
L 452.03842 -54.095823 
L 453.11194 -54.095823 
L 454.18546 -54.095823 
L 455.25898 -54.095823 
L 456.3325 -54.095823 
L 457.40602 -54.095823 
L 458.47954 -54.095823 
L 459.55306 -54.095823 
L 460.62658 -54.095823 
L 461.7001 -54.095823 
L 462.77362 -54.095823 
L 463.84714 -54.095823 
L 464.92066 -54.095823 
L 465.99418 -54.095823 
L 467.0677 -54.095823 
L 468.14122 -54.095823 
L 469.21474 -54.095823 
L 470.28826 -54.095823 
L 471.36178 -54.095823 
L 472.4353 -54.095823 
L 473.50882 -54.095823 
L 474.58234 -54.095823 
L 475.65586 -54.095823 
L 476.72938 -54.095823 
L 477.8029 -54.095823 
L 478.87642 -54.095823 
L 479.94994 -54.095823 
L 481.02346 -54.095823 
L 482.09698 -54.095823 
L 483.1705 -54.095823 
L 484.24402 -54.095823 
L 485.31754 -54.095823 
L 486.39106 -54.095823 
L 487.46458 -54.095823 
L 488.5381 -54.095823 
L 489.61162 -54.095823 
L 490.68514 -54.095823 
L 491.75866 -54.095823 
L 492.83218 -54.095823 
L 493.9057 -54.095823 
L 494.97922 -54.095823 
L 496.05274 -54.095823 
L 497.12626 -54.095823 
L 498.19978 -54.095823 
L 499.2733 -54.095823 
L 500.34682 -54.095823 
L 501.42034 -54.095823 
L 502.49386 -54.095823 
L 503.56738 -54.095823 
L 504.6409 -54.095823 
L 505.71442 -54.095823 
L 506.78794 -54.095823 
L 507.86146 -54.095823 
L 508.93498 -54.095823 
L 510.0085 -54.095823 
L 511.08202 -54.095823 
L 512.15554 -54.095823 
L 513.22906 -54.095823 
L 514.30258 -54.095823 
L 515.3761 -54.095823 
L 516.44962 -54.095823 
L 517.52314 -54.095823 
L 518.59666 -54.095823 
L 519.67018 -54.095823 
L 520.7437 -54.095823 
L 521.81722 -54.095823 
L 522.89074 -54.095823 
L 523.96426 -54.095823 
L 525.03778 -54.095823 
L 526.1113 -54.095823 
L 527.18482 -54.095823 
L 528.25834 -54.095823 
L 529.33186 -54.095823 
L 530.40538 -54.095823 
L 531.4789 -54.095823 
L 532.55242 -54.095823 
L 533.62594 -54.095823 
L 534.69946 -54.095823 
L 535.77298 -54.095823 
L 536.8465 -54.095823 
L 537.92002 -54.095823 
L 538.99354 -54.095823 
L 540.06706 -54.095823 
L 541.14058 -54.095823 
L 542.2141 -54.095823 
L 543.28762 -54.095823 
L 544.36114 -54.095823 
L 545.43466 -54.095823 
L 546.50818 -54.095823 
L 547.5817 -54.095823 
L 548.65522 -54.095823 
L 549.72874 -54.095823 
L 550.80226 -54.095823 
L 551.87578 -54.095823 
L 552.9493 -54.095823 
L 554.02282 -54.095823 
L 555.09634 -54.095823 
L 556.16986 -54.095823 
L 557.24338 -54.095823 
L 558.3169 -54.095823 
L 559.39042 -54.095823 
L 560.46394 -54.095823 
L 561.53746 -54.095823 
L 562.61098 -54.095823 
L 563.6845 -54.095823 
L 564.75802 -54.095823 
L 565.83154 -54.095823 
L 566.90506 -54.095823 
L 567.97858 -54.095823 
L 569.0521 -54.095823 
L 570.12562 -54.095823 
L 571.19914 -54.095823 
L 572.27266 -54.095823 
L 573.34618 -54.095823 
L 574.4197 -54.095823 
L 575.49322 -54.095823 
L 576.56674 -54.095823 
L 577.64026 -54.095823 
L 578.71378 -54.095823 
L 579.7873 -54.095823 
L 580.86082 -54.095823 
L 581.93434 -54.095823 
L 583.00786 -54.095823 
L 584.08138 -54.095823 
L 585.1549 -54.095823 
L 586.22842 -54.095823 
L 587.30194 -54.095823 
L 588.37546 -54.095823 
L 589.44898 -54.095823 
L 590.5225 -54.095823 
L 590.5225 -54.095823 
L 590.5225 -54.095823 
L 589.44898 -54.095823 
L 588.37546 -54.095823 
L 587.30194 -54.095823 
L 586.22842 -54.095823 
L 585.1549 -54.095823 
L 584.08138 -54.095823 
L 583.00786 -54.095823 
L 581.93434 -54.095823 
L 580.86082 -54.095823 
L 579.7873 -54.095823 
L 578.71378 -54.095823 
L 577.64026 -54.095823 
L 576.56674 -54.095823 
L 575.49322 -54.095823 
L 574.4197 -54.095823 
L 573.34618 -54.095823 
L 572.27266 -54.095823 
L 571.19914 -54.095823 
L 570.12562 -54.095823 
L 569.0521 -54.095823 
L 567.97858 -54.095823 
L 566.90506 -54.095823 
L 565.83154 -54.095823 
L 564.75802 -54.095823 
L 563.6845 -54.095823 
L 562.61098 -54.095823 
L 561.53746 -54.095823 
L 560.46394 -54.095823 
L 559.39042 -54.095823 
L 558.3169 -54.095823 
L 557.24338 -54.095823 
L 556.16986 -54.095823 
L 555.09634 -54.095823 
L 554.02282 -54.095823 
L 552.9493 -54.095823 
L 551.87578 -54.095823 
L 550.80226 -54.095823 
L 549.72874 -54.095823 
L 548.65522 -54.095823 
L 547.5817 -54.095823 
L 546.50818 -54.095823 
L 545.43466 -54.095823 
L 544.36114 -54.095823 
L 543.28762 -54.095823 
L 542.2141 -54.095823 
L 541.14058 -54.095823 
L 540.06706 -54.095823 
L 538.99354 -54.095823 
L 537.92002 -54.095823 
L 536.8465 -54.095823 
L 535.77298 -54.095823 
L 534.69946 -54.095823 
L 533.62594 -54.095823 
L 532.55242 -54.095823 
L 531.4789 -54.095823 
L 530.40538 -54.095823 
L 529.33186 -54.095823 
L 528.25834 -54.095823 
L 527.18482 -54.095823 
L 526.1113 -54.095823 
L 525.03778 -54.095823 
L 523.96426 -54.095823 
L 522.89074 -54.095823 
L 521.81722 -54.095823 
L 520.7437 -54.095823 
L 519.67018 -54.095823 
L 518.59666 -54.095823 
L 517.52314 -54.095823 
L 516.44962 -54.095823 
L 515.3761 -54.095823 
L 514.30258 -54.095823 
L 513.22906 -54.095823 
L 512.15554 -54.095823 
L 511.08202 -54.095823 
L 510.0085 -54.095823 
L 508.93498 -54.095823 
L 507.86146 -54.095823 
L 506.78794 -54.095823 
L 505.71442 -54.095823 
L 504.6409 -54.095823 
L 503.56738 -54.095823 
L 502.49386 -54.095823 
L 501.42034 -54.095823 
L 500.34682 -54.095823 
L 499.2733 -54.095823 
L 498.19978 -54.095823 
L 497.12626 -54.095823 
L 496.05274 -54.095823 
L 494.97922 -54.095823 
L 493.9057 -54.095823 
L 492.83218 -54.095823 
L 491.75866 -54.095823 
L 490.68514 -54.095823 
L 489.61162 -54.095823 
L 488.5381 -54.095823 
L 487.46458 -54.095823 
L 486.39106 -54.095823 
L 485.31754 -54.095823 
L 484.24402 -54.095823 
L 483.1705 -54.095823 
L 482.09698 -54.095823 
L 481.02346 -54.095823 
L 479.94994 -54.095823 
L 478.87642 -54.095823 
L 477.8029 -54.095823 
L 476.72938 -54.095823 
L 475.65586 -54.095823 
L 474.58234 -54.095823 
L 473.50882 -54.095823 
L 472.4353 -54.095823 
L 471.36178 -54.095823 
L 470.28826 -54.095823 
L 469.21474 -54.095823 
L 468.14122 -54.095823 
L 467.0677 -54.095823 
L 465.99418 -54.095823 
L 464.92066 -54.095823 
L 463.84714 -54.095823 
L 462.77362 -54.095823 
L 461.7001 -54.095823 
L 460.62658 -54.095823 
L 459.55306 -54.095823 
L 458.47954 -54.095823 
L 457.40602 -54.095823 
L 456.3325 -54.095823 
L 455.25898 -54.095823 
L 454.18546 -54.095823 
L 453.11194 -54.095823 
L 452.03842 -54.095823 
L 450.9649 -54.095823 
L 449.89138 -54.095823 
L 448.81786 -54.095823 
L 447.74434 -54.095823 
L 446.67082 -54.095823 
L 445.5973 -54.095823 
L 444.52378 -54.095823 
L 443.45026 -54.095823 
L 442.37674 -54.095823 
L 441.30322 -54.095823 
L 440.2297 -54.095823 
L 439.15618 -54.095823 
L 438.08266 -54.095823 
L 437.00914 -54.095823 
L 435.93562 -54.095823 
L 434.8621 -54.095823 
L 433.78858 -54.095823 
L 432.71506 -54.095823 
L 431.64154 -54.095823 
L 430.56802 -54.095823 
L 429.4945 -54.095823 
L 428.42098 -54.095823 
L 427.34746 -54.095823 
L 426.27394 -54.095823 
L 425.20042 -54.095823 
L 424.1269 -54.095823 
L 423.05338 -54.095823 
L 421.97986 -54.095823 
L 420.90634 -54.095823 
L 419.83282 -54.095823 
L 418.7593 -54.095823 
L 417.68578 -54.095823 
L 416.61226 -54.095823 
L 415.53874 -54.095823 
L 414.46522 -54.095823 
L 413.3917 -54.095823 
L 412.31818 -54.095823 
L 411.24466 -54.095823 
L 410.17114 -54.095823 
L 409.09762 -54.095823 
L 408.0241 -54.095823 
L 406.95058 -54.095823 
L 405.87706 -54.095823 
L 404.80354 -54.095823 
L 403.73002 -54.095823 
L 402.6565 -54.095823 
L 401.58298 -54.095823 
L 400.50946 -54.095823 
L 399.43594 -54.095823 
L 398.36242 -54.095823 
L 397.2889 -54.095823 
L 396.21538 -54.095823 
L 395.14186 -54.095823 
L 394.06834 -54.095823 
L 392.99482 -54.095823 
L 391.9213 -54.095823 
L 390.84778 -54.095823 
L 389.77426 -54.095823 
L 388.70074 -54.095823 
L 387.62722 -54.095823 
L 386.5537 -54.095823 
L 385.48018 -54.095823 
L 384.40666 -54.095823 
L 383.33314 -54.095823 
L 382.25962 -54.095823 
L 381.1861 -54.095823 
L 380.11258 -54.095823 
L 379.03906 -54.095823 
L 377.96554 -54.095823 
L 376.89202 -54.095823 
L 375.8185 -54.095823 
L 374.74498 -54.095823 
L 373.67146 -54.095823 
L 372.59794 -54.095823 
L 371.52442 -54.095823 
L 370.4509 -54.095823 
L 369.37738 -54.095823 
L 368.30386 -54.095823 
L 367.23034 -54.095823 
L 366.15682 -54.095823 
L 365.0833 -54.095823 
L 364.00978 -54.095823 
L 362.93626 -54.095823 
L 361.86274 -54.095823 
L 360.78922 -54.095823 
L 359.7157 -54.095823 
L 358.64218 -54.095823 
L 357.56866 -54.095823 
L 356.49514 -54.095823 
L 355.42162 -54.095823 
L 354.3481 -54.095823 
L 353.27458 -54.095823 
L 352.20106 -54.095823 
L 351.12754 -54.095823 
L 350.05402 -54.095823 
L 348.9805 -54.095823 
L 347.90698 -54.095823 
L 346.83346 -54.095823 
L 345.75994 -54.095823 
L 344.68642 -54.095823 
L 343.6129 -54.095823 
L 342.53938 -54.095823 
L 341.46586 -54.095823 
L 340.39234 -54.095823 
L 339.31882 -54.095823 
L 338.2453 -54.095823 
L 337.17178 -54.095823 
L 336.09826 -54.095823 
L 335.02474 -54.095823 
L 333.95122 -54.095823 
L 332.8777 -54.095823 
L 331.80418 -54.095823 
L 330.73066 -54.095823 
L 329.65714 -54.095823 
L 328.58362 -54.095823 
L 327.5101 -54.095823 
L 326.43658 -54.095823 
L 325.36306 -54.095823 
L 324.28954 -54.095823 
L 323.21602 -54.095823 
L 322.1425 -54.095823 
L 321.06898 -54.095823 
L 319.99546 -54.095823 
L 318.92194 -54.095823 
L 317.84842 -54.095823 
L 316.7749 -54.095823 
L 315.70138 -54.095823 
L 314.62786 -54.095823 
L 313.55434 -54.095823 
L 312.48082 -54.095823 
L 311.4073 -54.095823 
L 310.33378 -54.095823 
L 309.26026 -54.095823 
L 308.18674 -54.095823 
L 307.11322 -54.095823 
L 306.0397 -54.095823 
L 304.96618 -54.095823 
L 303.89266 -54.095823 
L 302.81914 -54.095823 
L 301.74562 -54.095823 
L 300.6721 -62.091701 
L 299.59858 -62.091701 
L 298.52506 -62.091701 
L 297.45154 -62.091701 
L 296.37802 -62.091701 
L 295.3045 -62.091701 
L 294.23098 -62.091701 
L 293.15746 -63.609812 
L 292.08394 -63.609812 
L 291.01042 -63.609812 
L 289.9369 -63.609812 
L 288.86338 -63.609812 
L 287.78986 -63.609812 
L 286.71634 -63.609812 
L 285.64282 -63.609812 
L 284.5693 -63.609812 
L 283.49578 -63.609812 
L 282.42226 -63.609812 
L 281.34874 -63.609812 
L 280.27522 -63.609812 
L 279.2017 -63.609812 
L 278.12818 -63.609812 
L 277.05466 -63.609812 
L 275.98114 -63.609812 
L 274.90762 -63.609812 
L 273.8341 -69.977037 
L 272.76058 -69.977037 
L 271.68706 -69.977037 
L 270.61354 -69.977037 
L 269.54002 -69.977037 
L 268.4665 -69.977037 
L 267.39298 -69.977037 
L 266.31946 -69.977037 
L 265.24594 -69.977037 
L 264.17242 -69.977037 
L 263.0989 -69.977037 
L 262.02538 -69.977037 
L 260.95186 -69.977037 
L 259.87834 -69.977037 
L 258.80482 -69.977037 
L 257.7313 -69.977037 
L 256.65778 -69.977037 
L 255.58426 -69.977037 
L 254.51074 -69.977037 
L 253.43722 -69.977037 
L 252.3637 -69.977037 
L 251.29018 -69.977037 
L 250.21666 -69.977037 
L 249.14314 -69.977037 
L 248.06962 -69.977037 
L 246.9961 -69.977037 
L 245.92258 -69.977037 
L 244.84906 -69.977037 
L 243.77554 -69.977037 
L 242.70202 -69.977037 
L 241.6285 -69.977037 
L 240.55498 -69.977037 
L 239.48146 -69.977037 
L 238.40794 -69.977037 
L 237.33442 -69.977037 
L 236.2609 -69.977037 
L 235.18738 -69.977037 
L 234.11386 -69.977037 
L 233.04034 -69.977037 
L 231.96682 -69.977037 
L 230.8933 -69.977037 
L 229.81978 -69.977037 
L 228.74626 -69.977037 
L 227.67274 -69.977037 
L 226.59922 -69.977037 
L 225.5257 -69.977037 
L 224.45218 -69.977037 
L 223.37866 -69.977037 
L 222.30514 -69.977037 
L 221.23162 -69.977037 
L 220.1581 -69.977037 
L 219.08458 -69.977037 
L 218.01106 -69.977037 
L 216.93754 -69.977037 
L 215.86402 -69.977037 
L 214.7905 -69.977037 
L 213.71698 -69.977037 
L 212.64346 -69.977037 
L 211.56994 -69.977037 
L 210.49642 -69.977037 
L 209.4229 -69.977037 
L 208.34938 -69.977037 
L 207.27586 -69.977037 
L 206.20234 -69.977037 
L 205.12882 -69.977037 
L 204.0553 -69.977037 
L 202.98178 -69.977037 
L 201.90826 -69.977037 
L 200.83474 -69.977037 
L 199.76122 -69.977037 
L 198.6877 -69.977037 
L 197.61418 -69.977037 
L 196.54066 -69.977037 
L 195.46714 -69.977037 
L 194.39362 -69.977037 
L 193.3201 -69.977037 
L 192.24658 -69.977037 
L 191.17306 -69.977037 
L 190.09954 -69.977037 
L 189.02602 -69.977037 
L 187.9525 -69.977037 
L 186.87898 -69.977037 
L 185.80546 -69.977037 
L 184.73194 -69.977037 
L 183.65842 -69.977037 
L 182.5849 -69.977037 
L 181.51138 -69.977037 
L 180.43786 -69.977037 
L 179.36434 -69.977037 
L 178.29082 -69.977037 
L 177.2173 -69.977037 
L 176.14378 -69.977037 
L 175.07026 -69.977037 
L 173.99674 -69.977037 
L 172.92322 -69.977037 
L 171.8497 -69.977037 
L 170.77618 -69.977037 
L 169.70266 -69.977037 
L 168.62914 -69.977037 
L 167.55562 -69.977037 
L 166.4821 -69.977037 
L 165.40858 -69.977037 
L 164.33506 -69.977037 
L 163.26154 -69.977037 
L 162.18802 -70.662397 
L 161.1145 -70.662397 
L 160.04098 -70.662397 
L 158.96746 -70.662397 
L 157.89394 -70.662397 
L 156.82042 -70.662397 
L 155.7469 -70.662397 
L 154.67338 -70.662397 
L 153.59986 -70.662397 
L 152.52634 -70.662397 
L 151.45282 -70.662397 
L 150.3793 -70.662397 
L 149.30578 -70.662397 
L 148.23226 -70.662397 
L 147.15874 -70.662397 
L 146.08522 -70.662397 
L 145.0117 -70.662397 
L 143.93818 -70.662397 
L 142.86466 -70.662397 
L 141.79114 -70.662397 
L 140.71762 -70.662397 
L 139.6441 -70.662397 
L 138.57058 -70.662397 
L 137.49706 -70.662397 
L 136.42354 -70.662397 
L 135.35002 -70.662397 
L 134.2765 -70.662397 
L 133.20298 -70.662397 
L 132.12946 -70.662397 
L 131.05594 -70.662397 
L 129.98242 -70.662397 
L 128.9089 -70.662397 
L 127.83538 -79.174138 
L 126.76186 -79.174138 
L 125.68834 -79.174138 
L 124.61482 -79.174138 
L 123.5413 -79.174138 
L 122.46778 -79.174138 
L 121.39426 -79.174138 
L 120.32074 -79.174138 
L 119.24722 -79.174138 
L 118.1737 -79.174138 
L 117.10018 -79.174138 
L 116.02666 -79.174138 
L 114.95314 -99.860248 
L 113.87962 -99.860248 
L 112.8061 -99.860248 
L 111.73258 -99.860248 
L 110.65906 -99.860248 
L 109.58554 -99.860248 
L 108.51202 -99.860248 
L 107.4385 -100.833018 
L 106.36498 -100.833018 
L 105.29146 -100.833018 
L 104.21794 -100.833018 
L 103.14442 -100.833018 
L 102.0709 -100.833018 
L 100.99738 -100.833018 
L 99.92386 -100.833018 
L 98.85034 -100.833018 
L 97.77682 -100.833018 
L 96.7033 -100.833018 
L 95.62978 -100.833018 
L 94.55626 -100.833018 
L 93.48274 -100.833018 
L 92.40922 -100.833018 
L 91.3357 -100.833018 
L 90.26218 -100.833018 
L 89.18866 -100.833018 
L 88.11514 -100.833018 
L 87.04162 -100.833018 
L 85.9681 -100.833018 
L 84.89458 -100.833018 
L 83.82106 -100.833018 
L 82.74754 -100.833018 
L 81.67402 -100.833018 
L 80.6005 -100.833018 
L 79.52698 -100.833018 
L 78.45346 -100.833018 
L 77.37994 -100.833018 
L 76.30642 -100.833018 
L 75.2329 -100.833018 
L 74.15938 -100.833018 
L 73.08586 -100.833018 
L 72.01234 -100.833018 
L 70.93882 -100.833018 
L 69.8653 -100.833018 
L 68.79178 -100.833018 
L 67.71826 -100.833018 
L 66.64474 -100.833018 
L 65.57122 -100.833018 
L 64.4977 -100.833018 
L 63.42418 -100.833018 
L 62.35066 -100.833018 
L 61.27714 -100.833018 
L 60.20362 -100.833018 
L 59.1301 -100.833018 
L 58.05658 -100.833018 
L 56.98306 -100.833018 
L 55.90954 -100.833018 
L 54.83602 -189.82677 
L 53.7625 -281.864114 
z
" id="m88c50c30b0" style="stroke:#ffffff;stroke-opacity:0.2;"/>
    </defs>
    <g clip-path="url(#p5b8748af5e)">
     <use style="fill:#c44e52;fill-opacity:0.2;stroke:#ffffff;stroke-opacity:0.2;" x="0" xlink:href="#m88c50c30b0" y="300.53175"/>
    </g>
   </g>
   <g id="PolyCollection_2">
    <defs>
     <path d="M 53.7625 -281.864114 
L 53.7625 -281.864114 
L 54.83602 -234.360493 
L 55.90954 -234.360493 
L 56.98306 -234.360493 
L 58.05658 -231.7517 
L 59.1301 -190.497392 
L 60.20362 -190.497392 
L 61.27714 -164.925322 
L 62.35066 -164.925322 
L 63.42418 -128.778059 
L 64.4977 -128.778059 
L 65.57122 -121.07696 
L 66.64474 -108.880483 
L 67.71826 -108.880483 
L 68.79178 -108.880483 
L 69.8653 -108.880483 
L 70.93882 -102.012134 
L 72.01234 -102.012134 
L 73.08586 -102.012134 
L 74.15938 -102.012134 
L 75.2329 -102.012134 
L 76.30642 -102.012134 
L 77.37994 -102.012134 
L 78.45346 -102.012134 
L 79.52698 -102.012134 
L 80.6005 -102.012134 
L 81.67402 -102.012134 
L 82.74754 -102.012134 
L 83.82106 -102.012134 
L 84.89458 -102.012134 
L 85.9681 -102.012134 
L 87.04162 -102.012134 
L 88.11514 -102.012134 
L 89.18866 -102.012134 
L 90.26218 -102.012134 
L 91.3357 -96.33764 
L 92.40922 -96.33764 
L 93.48274 -96.33764 
L 94.55626 -96.33764 
L 95.62978 -96.33764 
L 96.7033 -90.935817 
L 97.77682 -90.935817 
L 98.85034 -87.000518 
L 99.92386 -68.52525 
L 100.99738 -64.582583 
L 102.0709 -64.582583 
L 103.14442 -64.582583 
L 104.21794 -64.582583 
L 105.29146 -64.582583 
L 106.36498 -63.845635 
L 107.4385 -63.845635 
L 108.51202 -63.845635 
L 109.58554 -63.845635 
L 110.65906 -63.845635 
L 111.73258 -63.845635 
L 112.8061 -63.845635 
L 113.87962 -63.845635 
L 114.95314 -63.845635 
L 116.02666 -63.845635 
L 117.10018 -63.845635 
L 118.1737 -63.845635 
L 119.24722 -63.845635 
L 120.32074 -63.845635 
L 121.39426 -63.845635 
L 122.46778 -63.845635 
L 123.5413 -63.845635 
L 124.61482 -63.845635 
L 125.68834 -63.845635 
L 126.76186 -63.845635 
L 127.83538 -63.845635 
L 128.9089 -63.845635 
L 129.98242 -63.845635 
L 131.05594 -63.845635 
L 132.12946 -57.979535 
L 133.20298 -57.832146 
L 134.2765 -57.832146 
L 135.35002 -57.832146 
L 136.42354 -57.832146 
L 137.49706 -57.832146 
L 138.57058 -57.832146 
L 139.6441 -57.832146 
L 140.71762 -57.832146 
L 141.79114 -57.832146 
L 142.86466 -56.107689 
L 143.93818 -56.107689 
L 145.0117 -56.107689 
L 146.08522 -56.107689 
L 147.15874 -56.107689 
L 148.23226 -56.107689 
L 149.30578 -56.107689 
L 150.3793 -56.107689 
L 151.45282 -56.107689 
L 152.52634 -56.107689 
L 153.59986 -56.107689 
L 154.67338 -56.107689 
L 155.7469 -56.107689 
L 156.82042 -56.107689 
L 157.89394 -56.107689 
L 158.96746 -56.107689 
L 160.04098 -54.847509 
L 161.1145 -54.847509 
L 162.18802 -54.847509 
L 163.26154 -54.847509 
L 164.33506 -54.847509 
L 165.40858 -54.847509 
L 166.4821 -52.511386 
L 167.55562 -52.511386 
L 168.62914 -52.511386 
L 169.70266 -52.511386 
L 170.77618 -52.511386 
L 171.8497 -52.511386 
L 172.92322 -52.511386 
L 173.99674 -52.511386 
L 175.07026 -52.511386 
L 176.14378 -52.511386 
L 177.2173 -52.511386 
L 178.29082 -52.511386 
L 179.36434 -52.511386 
L 180.43786 -52.511386 
L 181.51138 -52.511386 
L 182.5849 -52.511386 
L 183.65842 -52.511386 
L 184.73194 -52.511386 
L 185.80546 -52.511386 
L 186.87898 -52.511386 
L 187.9525 -52.511386 
L 189.02602 -52.511386 
L 190.09954 -52.511386 
L 191.17306 -52.511386 
L 192.24658 -52.511386 
L 193.3201 -52.511386 
L 194.39362 -52.511386 
L 195.46714 -52.511386 
L 196.54066 -52.511386 
L 197.61418 -52.511386 
L 198.6877 -52.511386 
L 199.76122 -52.511386 
L 200.83474 -52.511386 
L 201.90826 -52.511386 
L 202.98178 -52.511386 
L 204.0553 -52.511386 
L 205.12882 -52.511386 
L 206.20234 -52.511386 
L 207.27586 -52.511386 
L 208.34938 -52.511386 
L 209.4229 -52.511386 
L 210.49642 -52.511386 
L 211.56994 -52.511386 
L 212.64346 -52.511386 
L 213.71698 -52.511386 
L 214.7905 -52.511386 
L 215.86402 -52.511386 
L 216.93754 -52.511386 
L 218.01106 -52.511386 
L 219.08458 -52.511386 
L 220.1581 -52.511386 
L 221.23162 -52.511386 
L 222.30514 -52.511386 
L 223.37866 -52.511386 
L 224.45218 -52.511386 
L 225.5257 -52.511386 
L 226.59922 -52.511386 
L 227.67274 -52.511386 
L 228.74626 -52.511386 
L 229.81978 -52.511386 
L 230.8933 -52.511386 
L 231.96682 -52.511386 
L 233.04034 -52.511386 
L 234.11386 -52.511386 
L 235.18738 -52.511386 
L 236.2609 -52.511386 
L 237.33442 -52.511386 
L 238.40794 -52.511386 
L 239.48146 -52.511386 
L 240.55498 -52.511386 
L 241.6285 -52.511386 
L 242.70202 -52.511386 
L 243.77554 -52.511386 
L 244.84906 -52.511386 
L 245.92258 -52.511386 
L 246.9961 -52.511386 
L 248.06962 -52.511386 
L 249.14314 -52.511386 
L 250.21666 -52.511386 
L 251.29018 -52.511386 
L 252.3637 -52.511386 
L 253.43722 -52.511386 
L 254.51074 -52.511386 
L 255.58426 -52.511386 
L 256.65778 -52.511386 
L 257.7313 -52.511386 
L 258.80482 -52.511386 
L 259.87834 -52.511386 
L 260.95186 -52.511386 
L 262.02538 -52.511386 
L 263.0989 -52.511386 
L 264.17242 -52.511386 
L 265.24594 -52.511386 
L 266.31946 -52.511386 
L 267.39298 -52.511386 
L 268.4665 -52.511386 
L 269.54002 -52.511386 
L 270.61354 -52.511386 
L 271.68706 -52.511386 
L 272.76058 -52.511386 
L 273.8341 -52.511386 
L 274.90762 -52.511386 
L 275.98114 -52.511386 
L 277.05466 -52.511386 
L 278.12818 -52.511386 
L 279.2017 -52.511386 
L 280.27522 -52.511386 
L 281.34874 -52.511386 
L 282.42226 -52.511386 
L 283.49578 -52.511386 
L 284.5693 -52.511386 
L 285.64282 -52.511386 
L 286.71634 -52.511386 
L 287.78986 -52.511386 
L 288.86338 -52.511386 
L 289.9369 -52.511386 
L 291.01042 -52.511386 
L 292.08394 -52.511386 
L 293.15746 -52.511386 
L 294.23098 -52.511386 
L 295.3045 -52.511386 
L 296.37802 -52.511386 
L 297.45154 -52.511386 
L 298.52506 -52.511386 
L 299.59858 -52.511386 
L 300.6721 -52.511386 
L 301.74562 -52.511386 
L 302.81914 -52.511386 
L 303.89266 -52.511386 
L 304.96618 -52.511386 
L 306.0397 -52.511386 
L 307.11322 -52.511386 
L 308.18674 -52.511386 
L 309.26026 -52.511386 
L 310.33378 -52.511386 
L 311.4073 -52.511386 
L 312.48082 -52.511386 
L 313.55434 -52.511386 
L 314.62786 -52.511386 
L 315.70138 -52.511386 
L 316.7749 -52.511386 
L 317.84842 -52.511386 
L 318.92194 -52.511386 
L 319.99546 -52.511386 
L 321.06898 -52.511386 
L 322.1425 -52.511386 
L 323.21602 -52.511386 
L 324.28954 -52.511386 
L 325.36306 -52.511386 
L 326.43658 -52.511386 
L 327.5101 -52.511386 
L 328.58362 -52.511386 
L 329.65714 -52.511386 
L 330.73066 -52.511386 
L 331.80418 -52.511386 
L 332.8777 -52.511386 
L 333.95122 -52.511386 
L 335.02474 -52.511386 
L 336.09826 -52.511386 
L 337.17178 -52.511386 
L 338.2453 -52.511386 
L 339.31882 -52.511386 
L 340.39234 -52.511386 
L 341.46586 -52.511386 
L 342.53938 -52.511386 
L 343.6129 -52.511386 
L 344.68642 -52.511386 
L 345.75994 -52.511386 
L 346.83346 -52.511386 
L 347.90698 -52.511386 
L 348.9805 -52.511386 
L 350.05402 -52.511386 
L 351.12754 -52.511386 
L 352.20106 -52.511386 
L 353.27458 -52.511386 
L 354.3481 -52.511386 
L 355.42162 -52.511386 
L 356.49514 -52.511386 
L 357.56866 -52.511386 
L 358.64218 -52.511386 
L 359.7157 -52.511386 
L 360.78922 -52.511386 
L 361.86274 -52.511386 
L 362.93626 -52.511386 
L 364.00978 -52.511386 
L 365.0833 -52.511386 
L 366.15682 -52.511386 
L 367.23034 -52.511386 
L 368.30386 -52.511386 
L 369.37738 -52.511386 
L 370.4509 -52.511386 
L 371.52442 -52.511386 
L 372.59794 -52.511386 
L 373.67146 -52.511386 
L 374.74498 -52.511386 
L 375.8185 -52.511386 
L 376.89202 -52.511386 
L 377.96554 -52.511386 
L 379.03906 -52.511386 
L 380.11258 -52.511386 
L 381.1861 -52.511386 
L 382.25962 -52.511386 
L 383.33314 -52.511386 
L 384.40666 -52.511386 
L 385.48018 -52.511386 
L 386.5537 -52.511386 
L 387.62722 -52.511386 
L 388.70074 -52.511386 
L 389.77426 -52.511386 
L 390.84778 -52.511386 
L 391.9213 -52.511386 
L 392.99482 -52.511386 
L 394.06834 -52.511386 
L 395.14186 -52.511386 
L 396.21538 -52.511386 
L 397.2889 -52.511386 
L 398.36242 -52.511386 
L 399.43594 -52.511386 
L 400.50946 -52.511386 
L 401.58298 -52.511386 
L 402.6565 -52.511386 
L 403.73002 -52.511386 
L 404.80354 -52.511386 
L 405.87706 -52.511386 
L 406.95058 -52.511386 
L 408.0241 -52.511386 
L 409.09762 -52.511386 
L 410.17114 -52.511386 
L 411.24466 -52.511386 
L 412.31818 -52.511386 
L 413.3917 -52.511386 
L 414.46522 -52.511386 
L 415.53874 -52.511386 
L 416.61226 -52.511386 
L 417.68578 -52.511386 
L 418.7593 -52.511386 
L 419.83282 -52.511386 
L 420.90634 -52.511386 
L 421.97986 -52.511386 
L 423.05338 -52.511386 
L 424.1269 -52.511386 
L 425.20042 -52.511386 
L 426.27394 -52.511386 
L 427.34746 -52.511386 
L 428.42098 -52.511386 
L 429.4945 -52.511386 
L 430.56802 -52.511386 
L 431.64154 -52.511386 
L 432.71506 -52.511386 
L 433.78858 -52.511386 
L 434.8621 -52.511386 
L 435.93562 -52.511386 
L 437.00914 -52.511386 
L 438.08266 -52.511386 
L 439.15618 -52.511386 
L 440.2297 -52.511386 
L 441.30322 -52.511386 
L 442.37674 -52.511386 
L 443.45026 -52.511386 
L 444.52378 -52.511386 
L 445.5973 -52.511386 
L 446.67082 -52.511386 
L 447.74434 -52.511386 
L 448.81786 -52.511386 
L 449.89138 -52.511386 
L 450.9649 -52.511386 
L 452.03842 -52.511386 
L 453.11194 -52.511386 
L 454.18546 -52.511386 
L 455.25898 -52.511386 
L 456.3325 -52.511386 
L 457.40602 -52.511386 
L 458.47954 -52.511386 
L 459.55306 -52.511386 
L 460.62658 -52.511386 
L 461.7001 -52.511386 
L 462.77362 -52.511386 
L 463.84714 -52.511386 
L 464.92066 -52.511386 
L 465.99418 -52.511386 
L 467.0677 -52.511386 
L 468.14122 -52.511386 
L 469.21474 -52.511386 
L 470.28826 -52.511386 
L 471.36178 -52.511386 
L 472.4353 -52.511386 
L 473.50882 -52.511386 
L 474.58234 -52.511386 
L 475.65586 -52.511386 
L 476.72938 -52.511386 
L 477.8029 -52.511386 
L 478.87642 -52.511386 
L 479.94994 -52.511386 
L 481.02346 -52.511386 
L 482.09698 -52.511386 
L 483.1705 -52.511386 
L 484.24402 -52.511386 
L 485.31754 -52.511386 
L 486.39106 -52.511386 
L 487.46458 -52.511386 
L 488.5381 -52.511386 
L 489.61162 -52.511386 
L 490.68514 -52.511386 
L 491.75866 -52.511386 
L 492.83218 -52.511386 
L 493.9057 -52.511386 
L 494.97922 -52.511386 
L 496.05274 -52.511386 
L 497.12626 -52.511386 
L 498.19978 -52.511386 
L 499.2733 -52.511386 
L 500.34682 -52.511386 
L 501.42034 -52.511386 
L 502.49386 -52.511386 
L 503.56738 -52.511386 
L 504.6409 -52.511386 
L 505.71442 -52.511386 
L 506.78794 -52.511386 
L 507.86146 -52.511386 
L 508.93498 -52.511386 
L 510.0085 -52.511386 
L 511.08202 -52.511386 
L 512.15554 -52.511386 
L 513.22906 -52.511386 
L 514.30258 -52.511386 
L 515.3761 -52.511386 
L 516.44962 -52.511386 
L 517.52314 -52.511386 
L 518.59666 -52.511386 
L 519.67018 -52.511386 
L 520.7437 -52.511386 
L 521.81722 -52.511386 
L 522.89074 -52.511386 
L 523.96426 -52.511386 
L 525.03778 -52.511386 
L 526.1113 -52.511386 
L 527.18482 -52.511386 
L 528.25834 -52.511386 
L 529.33186 -52.511386 
L 530.40538 -52.511386 
L 531.4789 -52.511386 
L 532.55242 -52.511386 
L 533.62594 -52.511386 
L 534.69946 -52.511386 
L 535.77298 -52.511386 
L 536.8465 -52.511386 
L 537.92002 -52.511386 
L 538.99354 -52.511386 
L 540.06706 -52.511386 
L 541.14058 -52.511386 
L 542.2141 -52.511386 
L 543.28762 -52.511386 
L 544.36114 -52.511386 
L 545.43466 -52.511386 
L 546.50818 -52.511386 
L 547.5817 -52.511386 
L 548.65522 -52.511386 
L 549.72874 -52.511386 
L 550.80226 -52.511386 
L 551.87578 -52.511386 
L 552.9493 -52.511386 
L 554.02282 -52.511386 
L 555.09634 -52.511386 
L 556.16986 -52.511386 
L 557.24338 -52.511386 
L 558.3169 -52.511386 
L 559.39042 -52.511386 
L 560.46394 -52.511386 
L 561.53746 -52.511386 
L 562.61098 -52.511386 
L 563.6845 -52.511386 
L 564.75802 -52.511386 
L 565.83154 -52.511386 
L 566.90506 -52.511386 
L 567.97858 -52.511386 
L 569.0521 -52.511386 
L 570.12562 -52.511386 
L 571.19914 -52.511386 
L 572.27266 -52.511386 
L 573.34618 -52.511386 
L 574.4197 -52.511386 
L 575.49322 -52.511386 
L 576.56674 -52.511386 
L 577.64026 -52.511386 
L 578.71378 -52.511386 
L 579.7873 -52.511386 
L 580.86082 -52.511386 
L 581.93434 -52.511386 
L 583.00786 -52.511386 
L 584.08138 -52.511386 
L 585.1549 -52.511386 
L 586.22842 -52.511386 
L 587.30194 -52.511386 
L 588.37546 -52.511386 
L 589.44898 -52.511386 
L 590.5225 -52.511386 
L 590.5225 -52.511386 
L 590.5225 -52.511386 
L 589.44898 -52.511386 
L 588.37546 -52.511386 
L 587.30194 -52.511386 
L 586.22842 -52.511386 
L 585.1549 -52.511386 
L 584.08138 -52.511386 
L 583.00786 -52.511386 
L 581.93434 -52.511386 
L 580.86082 -52.511386 
L 579.7873 -52.511386 
L 578.71378 -52.511386 
L 577.64026 -52.511386 
L 576.56674 -52.511386 
L 575.49322 -52.511386 
L 574.4197 -52.511386 
L 573.34618 -52.511386 
L 572.27266 -52.511386 
L 571.19914 -52.511386 
L 570.12562 -52.511386 
L 569.0521 -52.511386 
L 567.97858 -52.511386 
L 566.90506 -52.511386 
L 565.83154 -52.511386 
L 564.75802 -52.511386 
L 563.6845 -52.511386 
L 562.61098 -52.511386 
L 561.53746 -52.511386 
L 560.46394 -52.511386 
L 559.39042 -52.511386 
L 558.3169 -52.511386 
L 557.24338 -52.511386 
L 556.16986 -52.511386 
L 555.09634 -52.511386 
L 554.02282 -52.511386 
L 552.9493 -52.511386 
L 551.87578 -52.511386 
L 550.80226 -52.511386 
L 549.72874 -52.511386 
L 548.65522 -52.511386 
L 547.5817 -52.511386 
L 546.50818 -52.511386 
L 545.43466 -52.511386 
L 544.36114 -52.511386 
L 543.28762 -52.511386 
L 542.2141 -52.511386 
L 541.14058 -52.511386 
L 540.06706 -52.511386 
L 538.99354 -52.511386 
L 537.92002 -52.511386 
L 536.8465 -52.511386 
L 535.77298 -52.511386 
L 534.69946 -52.511386 
L 533.62594 -52.511386 
L 532.55242 -52.511386 
L 531.4789 -52.511386 
L 530.40538 -52.511386 
L 529.33186 -52.511386 
L 528.25834 -52.511386 
L 527.18482 -52.511386 
L 526.1113 -52.511386 
L 525.03778 -52.511386 
L 523.96426 -52.511386 
L 522.89074 -52.511386 
L 521.81722 -52.511386 
L 520.7437 -52.511386 
L 519.67018 -52.511386 
L 518.59666 -52.511386 
L 517.52314 -52.511386 
L 516.44962 -52.511386 
L 515.3761 -52.511386 
L 514.30258 -52.511386 
L 513.22906 -52.511386 
L 512.15554 -52.511386 
L 511.08202 -52.511386 
L 510.0085 -52.511386 
L 508.93498 -52.511386 
L 507.86146 -52.511386 
L 506.78794 -52.511386 
L 505.71442 -52.511386 
L 504.6409 -52.511386 
L 503.56738 -52.511386 
L 502.49386 -52.511386 
L 501.42034 -52.511386 
L 500.34682 -52.511386 
L 499.2733 -52.511386 
L 498.19978 -52.511386 
L 497.12626 -52.511386 
L 496.05274 -52.511386 
L 494.97922 -52.511386 
L 493.9057 -52.511386 
L 492.83218 -52.511386 
L 491.75866 -52.511386 
L 490.68514 -52.511386 
L 489.61162 -52.511386 
L 488.5381 -52.511386 
L 487.46458 -52.511386 
L 486.39106 -52.511386 
L 485.31754 -52.511386 
L 484.24402 -52.511386 
L 483.1705 -52.511386 
L 482.09698 -52.511386 
L 481.02346 -52.511386 
L 479.94994 -52.511386 
L 478.87642 -52.511386 
L 477.8029 -52.511386 
L 476.72938 -52.511386 
L 475.65586 -52.511386 
L 474.58234 -52.511386 
L 473.50882 -52.511386 
L 472.4353 -52.511386 
L 471.36178 -52.511386 
L 470.28826 -52.511386 
L 469.21474 -52.511386 
L 468.14122 -52.511386 
L 467.0677 -52.511386 
L 465.99418 -52.511386 
L 464.92066 -52.511386 
L 463.84714 -52.511386 
L 462.77362 -52.511386 
L 461.7001 -52.511386 
L 460.62658 -52.511386 
L 459.55306 -52.511386 
L 458.47954 -52.511386 
L 457.40602 -52.511386 
L 456.3325 -52.511386 
L 455.25898 -52.511386 
L 454.18546 -52.511386 
L 453.11194 -52.511386 
L 452.03842 -52.511386 
L 450.9649 -52.511386 
L 449.89138 -52.511386 
L 448.81786 -52.511386 
L 447.74434 -52.511386 
L 446.67082 -52.511386 
L 445.5973 -52.511386 
L 444.52378 -52.511386 
L 443.45026 -52.511386 
L 442.37674 -52.511386 
L 441.30322 -52.511386 
L 440.2297 -52.511386 
L 439.15618 -52.511386 
L 438.08266 -52.511386 
L 437.00914 -52.511386 
L 435.93562 -52.511386 
L 434.8621 -52.511386 
L 433.78858 -52.511386 
L 432.71506 -52.511386 
L 431.64154 -52.511386 
L 430.56802 -52.511386 
L 429.4945 -52.511386 
L 428.42098 -52.511386 
L 427.34746 -52.511386 
L 426.27394 -52.511386 
L 425.20042 -52.511386 
L 424.1269 -52.511386 
L 423.05338 -52.511386 
L 421.97986 -52.511386 
L 420.90634 -52.511386 
L 419.83282 -52.511386 
L 418.7593 -52.511386 
L 417.68578 -52.511386 
L 416.61226 -52.511386 
L 415.53874 -52.511386 
L 414.46522 -52.511386 
L 413.3917 -52.511386 
L 412.31818 -52.511386 
L 411.24466 -52.511386 
L 410.17114 -52.511386 
L 409.09762 -52.511386 
L 408.0241 -52.511386 
L 406.95058 -52.511386 
L 405.87706 -52.511386 
L 404.80354 -52.511386 
L 403.73002 -52.511386 
L 402.6565 -52.511386 
L 401.58298 -52.511386 
L 400.50946 -52.511386 
L 399.43594 -52.511386 
L 398.36242 -52.511386 
L 397.2889 -52.511386 
L 396.21538 -52.511386 
L 395.14186 -52.511386 
L 394.06834 -52.511386 
L 392.99482 -52.511386 
L 391.9213 -52.511386 
L 390.84778 -52.511386 
L 389.77426 -52.511386 
L 388.70074 -52.511386 
L 387.62722 -52.511386 
L 386.5537 -52.511386 
L 385.48018 -52.511386 
L 384.40666 -52.511386 
L 383.33314 -52.511386 
L 382.25962 -52.511386 
L 381.1861 -52.511386 
L 380.11258 -52.511386 
L 379.03906 -52.511386 
L 377.96554 -52.511386 
L 376.89202 -52.511386 
L 375.8185 -52.511386 
L 374.74498 -52.511386 
L 373.67146 -52.511386 
L 372.59794 -52.511386 
L 371.52442 -52.511386 
L 370.4509 -52.511386 
L 369.37738 -52.511386 
L 368.30386 -52.511386 
L 367.23034 -52.511386 
L 366.15682 -52.511386 
L 365.0833 -52.511386 
L 364.00978 -52.511386 
L 362.93626 -52.511386 
L 361.86274 -52.511386 
L 360.78922 -52.511386 
L 359.7157 -52.511386 
L 358.64218 -52.511386 
L 357.56866 -52.511386 
L 356.49514 -52.511386 
L 355.42162 -52.511386 
L 354.3481 -52.511386 
L 353.27458 -52.511386 
L 352.20106 -52.511386 
L 351.12754 -52.511386 
L 350.05402 -52.511386 
L 348.9805 -52.511386 
L 347.90698 -52.511386 
L 346.83346 -52.511386 
L 345.75994 -52.511386 
L 344.68642 -52.511386 
L 343.6129 -52.511386 
L 342.53938 -52.511386 
L 341.46586 -52.511386 
L 340.39234 -52.511386 
L 339.31882 -52.511386 
L 338.2453 -52.511386 
L 337.17178 -52.511386 
L 336.09826 -52.511386 
L 335.02474 -52.511386 
L 333.95122 -52.511386 
L 332.8777 -52.511386 
L 331.80418 -52.511386 
L 330.73066 -52.511386 
L 329.65714 -52.511386 
L 328.58362 -52.511386 
L 327.5101 -52.511386 
L 326.43658 -52.511386 
L 325.36306 -52.511386 
L 324.28954 -52.511386 
L 323.21602 -52.511386 
L 322.1425 -52.511386 
L 321.06898 -52.511386 
L 319.99546 -52.511386 
L 318.92194 -52.511386 
L 317.84842 -52.511386 
L 316.7749 -52.511386 
L 315.70138 -52.511386 
L 314.62786 -52.511386 
L 313.55434 -52.511386 
L 312.48082 -52.511386 
L 311.4073 -52.511386 
L 310.33378 -52.511386 
L 309.26026 -52.511386 
L 308.18674 -52.511386 
L 307.11322 -52.511386 
L 306.0397 -52.511386 
L 304.96618 -52.511386 
L 303.89266 -52.511386 
L 302.81914 -52.511386 
L 301.74562 -52.511386 
L 300.6721 -52.511386 
L 299.59858 -52.511386 
L 298.52506 -52.511386 
L 297.45154 -52.511386 
L 296.37802 -52.511386 
L 295.3045 -52.511386 
L 294.23098 -52.511386 
L 293.15746 -52.511386 
L 292.08394 -52.511386 
L 291.01042 -52.511386 
L 289.9369 -52.511386 
L 288.86338 -52.511386 
L 287.78986 -52.511386 
L 286.71634 -52.511386 
L 285.64282 -52.511386 
L 284.5693 -52.511386 
L 283.49578 -52.511386 
L 282.42226 -52.511386 
L 281.34874 -52.511386 
L 280.27522 -52.511386 
L 279.2017 -52.511386 
L 278.12818 -52.511386 
L 277.05466 -52.511386 
L 275.98114 -52.511386 
L 274.90762 -52.511386 
L 273.8341 -52.511386 
L 272.76058 -52.511386 
L 271.68706 -52.511386 
L 270.61354 -52.511386 
L 269.54002 -52.511386 
L 268.4665 -52.511386 
L 267.39298 -52.511386 
L 266.31946 -52.511386 
L 265.24594 -52.511386 
L 264.17242 -52.511386 
L 263.0989 -52.511386 
L 262.02538 -52.511386 
L 260.95186 -52.511386 
L 259.87834 -52.511386 
L 258.80482 -52.511386 
L 257.7313 -52.511386 
L 256.65778 -52.511386 
L 255.58426 -52.511386 
L 254.51074 -52.511386 
L 253.43722 -52.511386 
L 252.3637 -52.511386 
L 251.29018 -52.511386 
L 250.21666 -52.511386 
L 249.14314 -52.511386 
L 248.06962 -52.511386 
L 246.9961 -52.511386 
L 245.92258 -52.511386 
L 244.84906 -52.511386 
L 243.77554 -52.511386 
L 242.70202 -52.511386 
L 241.6285 -52.511386 
L 240.55498 -52.511386 
L 239.48146 -52.511386 
L 238.40794 -52.511386 
L 237.33442 -52.511386 
L 236.2609 -52.511386 
L 235.18738 -52.511386 
L 234.11386 -52.511386 
L 233.04034 -52.511386 
L 231.96682 -52.511386 
L 230.8933 -52.511386 
L 229.81978 -52.511386 
L 228.74626 -52.511386 
L 227.67274 -52.511386 
L 226.59922 -52.511386 
L 225.5257 -52.511386 
L 224.45218 -52.511386 
L 223.37866 -52.511386 
L 222.30514 -52.511386 
L 221.23162 -52.511386 
L 220.1581 -52.511386 
L 219.08458 -52.511386 
L 218.01106 -52.511386 
L 216.93754 -52.511386 
L 215.86402 -52.511386 
L 214.7905 -52.511386 
L 213.71698 -52.511386 
L 212.64346 -52.511386 
L 211.56994 -52.511386 
L 210.49642 -52.511386 
L 209.4229 -52.511386 
L 208.34938 -52.511386 
L 207.27586 -52.511386 
L 206.20234 -52.511386 
L 205.12882 -52.511386 
L 204.0553 -52.511386 
L 202.98178 -52.511386 
L 201.90826 -52.511386 
L 200.83474 -52.511386 
L 199.76122 -52.511386 
L 198.6877 -52.511386 
L 197.61418 -52.511386 
L 196.54066 -52.511386 
L 195.46714 -52.511386 
L 194.39362 -52.511386 
L 193.3201 -52.511386 
L 192.24658 -52.511386 
L 191.17306 -52.511386 
L 190.09954 -52.511386 
L 189.02602 -52.511386 
L 187.9525 -52.511386 
L 186.87898 -52.511386 
L 185.80546 -52.511386 
L 184.73194 -52.511386 
L 183.65842 -52.511386 
L 182.5849 -52.511386 
L 181.51138 -52.511386 
L 180.43786 -52.511386 
L 179.36434 -52.511386 
L 178.29082 -52.511386 
L 177.2173 -52.511386 
L 176.14378 -52.511386 
L 175.07026 -52.511386 
L 173.99674 -52.511386 
L 172.92322 -52.511386 
L 171.8497 -52.511386 
L 170.77618 -52.511386 
L 169.70266 -52.511386 
L 168.62914 -52.511386 
L 167.55562 -52.511386 
L 166.4821 -52.511386 
L 165.40858 -54.847509 
L 164.33506 -54.847509 
L 163.26154 -54.847509 
L 162.18802 -54.847509 
L 161.1145 -54.847509 
L 160.04098 -54.847509 
L 158.96746 -56.107689 
L 157.89394 -56.107689 
L 156.82042 -56.107689 
L 155.7469 -56.107689 
L 154.67338 -56.107689 
L 153.59986 -56.107689 
L 152.52634 -56.107689 
L 151.45282 -56.107689 
L 150.3793 -56.107689 
L 149.30578 -56.107689 
L 148.23226 -56.107689 
L 147.15874 -56.107689 
L 146.08522 -56.107689 
L 145.0117 -56.107689 
L 143.93818 -56.107689 
L 142.86466 -56.107689 
L 141.79114 -57.832146 
L 140.71762 -57.832146 
L 139.6441 -57.832146 
L 138.57058 -57.832146 
L 137.49706 -57.832146 
L 136.42354 -57.832146 
L 135.35002 -57.832146 
L 134.2765 -57.832146 
L 133.20298 -57.832146 
L 132.12946 -57.979535 
L 131.05594 -63.845635 
L 129.98242 -63.845635 
L 128.9089 -63.845635 
L 127.83538 -63.845635 
L 126.76186 -63.845635 
L 125.68834 -63.845635 
L 124.61482 -63.845635 
L 123.5413 -63.845635 
L 122.46778 -63.845635 
L 121.39426 -63.845635 
L 120.32074 -63.845635 
L 119.24722 -63.845635 
L 118.1737 -63.845635 
L 117.10018 -63.845635 
L 116.02666 -63.845635 
L 114.95314 -63.845635 
L 113.87962 -63.845635 
L 112.8061 -63.845635 
L 111.73258 -63.845635 
L 110.65906 -63.845635 
L 109.58554 -63.845635 
L 108.51202 -63.845635 
L 107.4385 -63.845635 
L 106.36498 -63.845635 
L 105.29146 -64.582583 
L 104.21794 -64.582583 
L 103.14442 -64.582583 
L 102.0709 -64.582583 
L 100.99738 -64.582583 
L 99.92386 -68.52525 
L 98.85034 -87.000518 
L 97.77682 -90.935817 
L 96.7033 -90.935817 
L 95.62978 -96.33764 
L 94.55626 -96.33764 
L 93.48274 -96.33764 
L 92.40922 -96.33764 
L 91.3357 -96.33764 
L 90.26218 -102.012134 
L 89.18866 -102.012134 
L 88.11514 -102.012134 
L 87.04162 -102.012134 
L 85.9681 -102.012134 
L 84.89458 -102.012134 
L 83.82106 -102.012134 
L 82.74754 -102.012134 
L 81.67402 -102.012134 
L 80.6005 -102.012134 
L 79.52698 -102.012134 
L 78.45346 -102.012134 
L 77.37994 -102.012134 
L 76.30642 -102.012134 
L 75.2329 -102.012134 
L 74.15938 -102.012134 
L 73.08586 -102.012134 
L 72.01234 -102.012134 
L 70.93882 -102.012134 
L 69.8653 -108.880483 
L 68.79178 -108.880483 
L 67.71826 -108.880483 
L 66.64474 -108.880483 
L 65.57122 -121.07696 
L 64.4977 -128.778059 
L 63.42418 -128.778059 
L 62.35066 -164.925322 
L 61.27714 -164.925322 
L 60.20362 -190.497392 
L 59.1301 -190.497392 
L 58.05658 -231.7517 
L 56.98306 -234.360493 
L 55.90954 -234.360493 
L 54.83602 -234.360493 
L 53.7625 -281.864114 
z
" id="m4ff8314a83" style="stroke:#ffffff;stroke-opacity:0.2;"/>
    </defs>
    <g clip-path="url(#p5b8748af5e)">
     <use style="fill:#55a868;fill-opacity:0.2;stroke:#ffffff;stroke-opacity:0.2;" x="0" xlink:href="#m4ff8314a83" y="300.53175"/>
    </g>
   </g>
   <g id="line2d_14">
    <path clip-path="url(#p5b8748af5e)" d="M 53.7625 18.667636 
L 55.90954 199.698732 
L 107.4385 199.698732 
L 108.51202 200.671502 
L 114.95314 200.671502 
L 116.02666 221.357612 
L 127.83538 221.357612 
L 128.9089 229.869353 
L 162.18802 229.869353 
L 163.26154 230.554713 
L 273.8341 230.554713 
L 274.90762 236.921938 
L 293.15746 236.921938 
L 294.23098 238.440049 
L 300.6721 238.440049 
L 301.74562 246.435927 
L 590.5225 246.435927 
L 590.5225 246.435927 
" style="fill:none;stroke:#c44e52;stroke-linecap:round;stroke-width:1.5;"/>
   </g>
   <g id="line2d_15">
    <path clip-path="url(#p5b8748af5e)" d="M 53.7625 18.667636 
L 54.83602 66.171257 
L 56.98306 66.171257 
L 58.05658 68.78005 
L 59.1301 110.034358 
L 60.20362 110.034358 
L 61.27714 135.606428 
L 62.35066 135.606428 
L 63.42418 171.753691 
L 64.4977 171.753691 
L 65.57122 179.45479 
L 66.64474 191.651267 
L 69.8653 191.651267 
L 70.93882 198.519616 
L 90.26218 198.519616 
L 91.3357 204.19411 
L 95.62978 204.19411 
L 96.7033 209.595933 
L 97.77682 209.595933 
L 98.85034 213.531232 
L 99.92386 232.0065 
L 100.99738 235.949167 
L 105.29146 235.949167 
L 106.36498 236.686115 
L 131.05594 236.686115 
L 132.12946 242.552215 
L 133.20298 242.699604 
L 141.79114 242.699604 
L 142.86466 244.424061 
L 158.96746 244.424061 
L 160.04098 245.684241 
L 165.40858 245.684241 
L 166.4821 248.020364 
L 590.5225 248.020364 
L 590.5225 248.020364 
" style="fill:none;stroke:#55a868;stroke-dasharray:5.55,2.4;stroke-dashoffset:0;stroke-width:1.5;"/>
   </g>
   <g id="patch_3">
    <path d="M 53.7625 259.488 
L 53.7625 7.2 
" style="fill:none;stroke:#ffffff;stroke-linecap:square;stroke-linejoin:miter;stroke-width:1.25;"/>
   </g>
   <g id="patch_4">
    <path d="M 590.5225 259.488 
L 590.5225 7.2 
" style="fill:none;stroke:#ffffff;stroke-linecap:square;stroke-linejoin:miter;stroke-width:1.25;"/>
   </g>
   <g id="patch_5">
    <path d="M 53.7625 259.488 
L 590.5225 259.488 
" style="fill:none;stroke:#ffffff;stroke-linecap:square;stroke-linejoin:miter;stroke-width:1.25;"/>
   </g>
   <g id="patch_6">
    <path d="M 53.7625 7.2 
L 590.5225 7.2 
" style="fill:none;stroke:#ffffff;stroke-linecap:square;stroke-linejoin:miter;stroke-width:1.25;"/>
   </g>
   <g id="legend_1">
    <g id="patch_7">
     <path d="M 531.1225 45.5625 
L 582.8225 45.5625 
Q 585.0225 45.5625 585.0225 43.3625 
L 585.0225 14.9 
Q 585.0225 12.7 582.8225 12.7 
L 531.1225 12.7 
Q 528.9225 12.7 528.9225 14.9 
L 528.9225 43.3625 
Q 528.9225 45.5625 531.1225 45.5625 
z
" style="fill:#eaeaf2;opacity:0.8;stroke:#cccccc;stroke-linejoin:miter;"/>
    </g>
    <g id="line2d_16">
     <path d="M 533.3225 21.113281 
L 555.3225 21.113281 
" style="fill:none;stroke:#c44e52;stroke-linecap:round;stroke-width:1.5;"/>
    </g>
    <g id="line2d_17"/>
    <g id="text_16">
     <!-- GA -->
     <g style="fill:#262626;" transform="translate(564.1225 24.963281)scale(0.11 -0.11)">
      <defs>
       <path d="M 1625 4250 
Q 1250 4250 937 3737 
Q 625 3225 625 2175 
Q 625 1475 862 850 
Q 1100 225 1650 225 
Q 1925 225 2087 337 
Q 2250 450 2275 675 
L 2275 1525 
Q 2275 1675 2200 1750 
Q 2125 1825 1975 1825 
L 1825 1825 
L 1825 1975 
L 3075 1975 
L 3075 1825 
L 2950 1825 
Q 2825 1825 2750 1750 
Q 2675 1675 2675 1550 
L 2675 300 
Q 2625 325 2587 337 
Q 2550 350 2500 350 
Q 2450 350 2400 337 
Q 2350 325 2300 275 
Q 2150 150 1987 100 
Q 1825 50 1625 50 
Q 875 50 525 712 
Q 175 1375 175 2175 
Q 175 3100 587 3762 
Q 1000 4425 1625 4425 
Q 1775 4425 1975 4350 
Q 2175 4275 2225 4275 
Q 2300 4275 2375 4312 
Q 2450 4350 2500 4425 
L 2700 3300 
L 2550 3250 
Q 2400 3775 2175 4012 
Q 1950 4250 1625 4250 
z
" id="SimSun-47" transform="scale(0.015625)"/>
       <path d="M 2025 1700 
L 900 1700 
L 675 750 
Q 650 625 650 550 
Q 650 450 687 350 
Q 725 250 900 250 
L 975 250 
L 975 100 
L 50 100 
L 50 250 
L 125 250 
Q 225 250 300 312 
Q 375 375 400 525 
L 1375 4350 
L 1750 4475 
L 2700 525 
Q 2750 375 2825 312 
Q 2900 250 3000 250 
L 3075 250 
L 3075 100 
L 2000 100 
L 2000 250 
L 2100 250 
Q 2250 250 2275 312 
Q 2300 375 2300 425 
Q 2300 525 2275 600 
L 2025 1700 
z
M 325 250 
L 325 250 
z
M 575 250 
L 575 250 
z
M 2350 250 
L 2350 250 
z
M 2775 250 
L 2775 250 
z
M 1500 3925 
L 1475 3925 
L 950 1850 
L 2000 1850 
L 1500 3925 
z
" id="SimSun-41" transform="scale(0.015625)"/>
      </defs>
      <use xlink:href="#SimSun-47"/>
      <use x="50" xlink:href="#SimSun-41"/>
     </g>
    </g>
    <g id="line2d_18">
     <path d="M 533.3225 35.894531 
L 555.3225 35.894531 
" style="fill:none;stroke:#55a868;stroke-dasharray:5.55,2.4;stroke-dashoffset:0;stroke-width:1.5;"/>
    </g>
    <g id="line2d_19"/>
    <g id="text_17">
     <!-- PSO -->
     <g style="fill:#262626;" transform="translate(564.1225 39.744531)scale(0.11 -0.11)">
      <defs>
       <path d="M 950 2100 
L 950 450 
Q 950 350 1012 300 
Q 1075 250 1175 250 
L 1350 250 
L 1350 100 
L 150 100 
L 150 250 
L 325 250 
Q 450 250 500 300 
Q 550 350 550 450 
L 550 4025 
Q 550 4125 500 4175 
Q 450 4225 325 4225 
L 175 4225 
L 175 4375 
L 1650 4375 
Q 2275 4375 2612 4062 
Q 2950 3750 2950 3275 
Q 2950 2700 2587 2400 
Q 2225 2100 1725 2100 
L 950 2100 
z
M 1575 2250 
Q 1950 2250 2237 2475 
Q 2525 2700 2525 3250 
Q 2525 3750 2287 3987 
Q 2050 4225 1525 4225 
L 1175 4225 
Q 1075 4225 1012 4175 
Q 950 4125 950 4025 
L 950 2250 
L 1575 2250 
z
" id="SimSun-50" transform="scale(0.015625)"/>
       <path d="M 1500 2150 
Q 825 2450 575 2675 
Q 325 2900 325 3375 
Q 325 3750 637 4087 
Q 950 4425 1525 4425 
Q 1775 4425 2000 4350 
Q 2225 4250 2325 4250 
Q 2400 4250 2462 4287 
Q 2525 4325 2575 4425 
L 2675 3400 
L 2550 3350 
Q 2325 3875 2087 4062 
Q 1850 4250 1475 4250 
Q 1000 4250 825 3987 
Q 650 3725 650 3425 
Q 650 3150 812 2987 
Q 975 2825 1700 2500 
Q 2300 2250 2562 1937 
Q 2825 1625 2825 1200 
Q 2825 750 2512 400 
Q 2200 50 1600 50 
Q 1350 50 1150 150 
Q 925 225 800 225 
Q 725 225 650 175 
Q 575 125 475 50 
L 275 1275 
L 425 1325 
Q 600 700 912 462 
Q 1225 225 1625 225 
Q 2050 225 2262 475 
Q 2475 725 2475 1200 
Q 2475 1450 2237 1687 
Q 2000 1925 1500 2150 
z
" id="SimSun-53" transform="scale(0.015625)"/>
       <path d="M 700 2250 
Q 700 1175 962 687 
Q 1225 200 1625 200 
Q 2050 200 2300 662 
Q 2550 1125 2550 2250 
Q 2550 3150 2337 3700 
Q 2125 4250 1625 4250 
Q 1200 4250 950 3750 
Q 700 3250 700 2250 
z
M 3025 2250 
Q 3025 1225 2625 637 
Q 2225 50 1625 50 
Q 1050 50 637 650 
Q 225 1250 225 2250 
Q 225 3225 612 3825 
Q 1000 4425 1625 4425 
Q 2275 4425 2650 3787 
Q 3025 3150 3025 2250 
z
" id="SimSun-4f" transform="scale(0.015625)"/>
      </defs>
      <use xlink:href="#SimSun-50"/>
      <use x="50" xlink:href="#SimSun-53"/>
      <use x="100" xlink:href="#SimSun-4f"/>
     </g>
    </g>
   </g>
  </g>
 </g>
 <defs>
  <clipPath id="p5b8748af5e">
   <rect height="252.288" width="536.76" x="53.7625" y="7.2"/>
  </clipPath>
 </defs>
</svg>
